<svg width="263" height="68" viewBox="0 0 263 68" fill="none" xmlns="http://www.w3.org/2000/svg">
<path d="M8.62692 47.4317C6.92405 47.4317 5.3531 47.1199 3.91406 46.4963C2.499 45.8488 1.33578 44.9374 0.424384 43.7622L3.66223 39.8767C5.02932 41.7235 6.58828 42.6469 8.33911 42.6469C10.7135 42.6469 11.9007 41.2558 11.9007 38.4737V26.4937H3.05063V21.8168H17.6929V38.1499C17.6929 41.2438 16.9254 43.5703 15.3904 45.1292C13.8554 46.6642 11.6009 47.4317 8.62692 47.4317ZM35.6455 47.4317C33.0312 47.4317 30.6688 46.8681 28.5582 45.7408C26.4716 44.6136 24.8287 43.0666 23.6295 41.0999C22.4543 39.1093 21.8667 36.8787 21.8667 34.4084C21.8667 31.938 22.4543 29.7195 23.6295 27.7528C24.8287 25.7622 26.4716 24.2032 28.5582 23.0759C30.6688 21.9487 33.0312 21.3851 35.6455 21.3851C38.2597 21.3851 40.6102 21.9487 42.6968 23.0759C44.7834 24.2032 46.4263 25.7622 47.6255 27.7528C48.8247 29.7195 49.4243 31.938 49.4243 34.4084C49.4243 36.8787 48.8247 39.1093 47.6255 41.0999C46.4263 43.0666 44.7834 44.6136 42.6968 45.7408C40.6102 46.8681 38.2597 47.4317 35.6455 47.4317ZM35.6455 42.467C37.1325 42.467 38.4756 42.1312 39.6748 41.4597C40.874 40.7642 41.8094 39.8048 42.4809 38.5816C43.1765 37.3584 43.5242 35.9674 43.5242 34.4084C43.5242 32.8494 43.1765 31.4584 42.4809 30.2352C41.8094 29.012 40.874 28.0646 39.6748 27.3931C38.4756 26.6975 37.1325 26.3498 35.6455 26.3498C34.1585 26.3498 32.8154 26.6975 31.6162 27.3931C30.417 28.0646 29.4696 29.012 28.7741 30.2352C28.1025 31.4584 27.7667 32.8494 27.7667 34.4084C27.7667 35.9674 28.1025 37.3584 28.7741 38.5816C29.4696 39.8048 30.417 40.7642 31.6162 41.4597C32.8154 42.1312 34.1585 42.467 35.6455 42.467ZM69.8497 47L64.9929 39.9847H64.7051H59.6325V47H53.8044V21.8168H64.7051C66.9356 21.8168 68.8663 22.1885 70.4973 22.932C72.1522 23.6755 73.4233 24.7308 74.3107 26.0979C75.1981 27.465 75.6418 29.0839 75.6418 30.9547C75.6418 32.8254 75.1861 34.4444 74.2747 35.8115C73.3873 37.1546 72.1162 38.1859 70.4613 38.9054L76.1095 47H69.8497ZM69.7418 30.9547C69.7418 29.5396 69.2861 28.4604 68.3747 27.7168C67.4633 26.9494 66.1322 26.5656 64.3813 26.5656H59.6325V35.3438H64.3813C66.1322 35.3438 67.4633 34.96 68.3747 34.1925C69.2861 33.425 69.7418 32.3458 69.7418 30.9547ZM103.356 21.8168V47H98.5712L86.0156 31.7102V47H80.2594V21.8168H85.0802L97.5999 37.1066V21.8168H103.356ZM125.899 41.6036H114.207L111.976 47H106.004L117.229 21.8168H122.985L134.246 47H128.13L125.899 41.6036ZM124.064 37.1785L120.071 27.537L116.078 37.1785H124.064ZM136.858 21.8168H148.299C151.033 21.8168 153.443 22.3444 155.53 23.3997C157.641 24.431 159.271 25.8941 160.423 27.7888C161.598 29.6835 162.186 31.8901 162.186 34.4084C162.186 36.9267 161.598 39.1332 160.423 41.028C159.271 42.9227 157.641 44.3977 155.53 45.453C153.443 46.4843 151.033 47 148.299 47H136.858V21.8168ZM148.011 42.2152C150.529 42.2152 152.532 41.5197 154.019 40.1286C155.53 38.7135 156.285 36.8068 156.285 34.4084C156.285 32.01 155.53 30.1153 154.019 28.7242C152.532 27.3091 150.529 26.6016 148.011 26.6016H142.687V42.2152H148.011ZM182.814 41.6036H171.122L168.892 47H162.92L174.144 21.8168H179.9L191.161 47H185.045L182.814 41.6036ZM180.98 37.1785L176.986 27.537L172.993 37.1785H180.98Z" fill="#05416B"/>
<path d="M10.463 57.85H11.102V60.253C10.808 60.511 10.46 60.709 10.058 60.847C9.656 60.985 9.233 61.054 8.789 61.054C8.159 61.054 7.592 60.916 7.088 60.64C6.584 60.364 6.188 59.983 5.9 59.497C5.612 59.005 5.468 58.456 5.468 57.85C5.468 57.244 5.612 56.698 5.9 56.212C6.188 55.72 6.584 55.336 7.088 55.06C7.592 54.784 8.162 54.646 8.798 54.646C9.278 54.646 9.719 54.724 10.121 54.88C10.523 55.03 10.862 55.255 11.138 55.555L10.724 55.978C10.226 55.486 9.593 55.24 8.825 55.24C8.315 55.24 7.853 55.354 7.439 55.582C7.031 55.804 6.71 56.116 6.476 56.518C6.242 56.914 6.125 57.358 6.125 57.85C6.125 58.342 6.242 58.786 6.476 59.182C6.71 59.578 7.031 59.89 7.439 60.118C7.847 60.346 8.306 60.46 8.816 60.46C9.464 60.46 10.013 60.298 10.463 59.974V57.85ZM16.9739 58.831H13.0139C13.0499 59.323 13.2389 59.722 13.5809 60.028C13.9229 60.328 14.3549 60.478 14.8769 60.478C15.1709 60.478 15.4409 60.427 15.6869 60.325C15.9329 60.217 16.1459 60.061 16.3259 59.857L16.6859 60.271C16.4759 60.523 16.2119 60.715 15.8939 60.847C15.5819 60.979 15.2369 61.045 14.8589 61.045C14.3729 61.045 13.9409 60.943 13.5629 60.739C13.1909 60.529 12.8999 60.241 12.6899 59.875C12.4799 59.509 12.3749 59.095 12.3749 58.633C12.3749 58.171 12.4739 57.757 12.6719 57.391C12.8759 57.025 13.1519 56.74 13.4999 56.536C13.8539 56.332 14.2499 56.23 14.6879 56.23C15.1259 56.23 15.5189 56.332 15.8669 56.536C16.2149 56.74 16.4879 57.025 16.6859 57.391C16.8839 57.751 16.9829 58.165 16.9829 58.633L16.9739 58.831ZM14.6879 56.779C14.2319 56.779 13.8479 56.926 13.5359 57.22C13.2299 57.508 13.0559 57.886 13.0139 58.354H16.3709C16.3289 57.886 16.1519 57.508 15.8399 57.22C15.5339 56.926 15.1499 56.779 14.6879 56.779ZM19.5526 61.045C19.1686 61.045 18.7996 60.991 18.4456 60.883C18.0976 60.769 17.8246 60.628 17.6266 60.46L17.9146 59.956C18.1126 60.112 18.3616 60.241 18.6616 60.343C18.9616 60.439 19.2736 60.487 19.5976 60.487C20.0296 60.487 20.3476 60.421 20.5516 60.289C20.7616 60.151 20.8666 59.959 20.8666 59.713C20.8666 59.539 20.8096 59.404 20.6956 59.308C20.5816 59.206 20.4376 59.131 20.2636 59.083C20.0896 59.029 19.8586 58.978 19.5706 58.93C19.1866 58.858 18.8776 58.786 18.6436 58.714C18.4096 58.636 18.2086 58.507 18.0406 58.327C17.8786 58.147 17.7976 57.898 17.7976 57.58C17.7976 57.184 17.9626 56.86 18.2926 56.608C18.6226 56.356 19.0816 56.23 19.6696 56.23C19.9756 56.23 20.2816 56.272 20.5876 56.356C20.8936 56.434 21.1456 56.539 21.3436 56.671L21.0646 57.184C20.6746 56.914 20.2096 56.779 19.6696 56.779C19.2616 56.779 18.9526 56.851 18.7426 56.995C18.5386 57.139 18.4366 57.328 18.4366 57.562C18.4366 57.742 18.4936 57.886 18.6076 57.994C18.7276 58.102 18.8746 58.183 19.0486 58.237C19.2226 58.285 19.4626 58.336 19.7686 58.39C20.1466 58.462 20.4496 58.534 20.6776 58.606C20.9056 58.678 21.1006 58.801 21.2626 58.975C21.4246 59.149 21.5056 59.389 21.5056 59.695C21.5056 60.109 21.3316 60.439 20.9836 60.685C20.6416 60.925 20.1646 61.045 19.5526 61.045ZM25.1799 60.712C25.0599 60.82 24.9099 60.904 24.7299 60.964C24.5559 61.018 24.3729 61.045 24.1809 61.045C23.7369 61.045 23.3949 60.925 23.1549 60.685C22.9149 60.445 22.7949 60.106 22.7949 59.668V56.806H21.9489V56.266H22.7949V55.231H23.4339V56.266H24.8739V56.806H23.4339V59.632C23.4339 59.914 23.5029 60.13 23.6409 60.28C23.7849 60.424 23.9889 60.496 24.2529 60.496C24.3849 60.496 24.5109 60.475 24.6309 60.433C24.7569 60.391 24.8649 60.331 24.9549 60.253L25.1799 60.712ZM27.9991 56.23C28.6171 56.23 29.0911 56.386 29.4211 56.698C29.7511 57.004 29.9161 57.46 29.9161 58.066V61H29.3041V60.262C29.1601 60.508 28.9471 60.7 28.6651 60.838C28.3891 60.976 28.0591 61.045 27.6751 61.045C27.1471 61.045 26.7271 60.919 26.4151 60.667C26.1031 60.415 25.9471 60.082 25.9471 59.668C25.9471 59.266 26.0911 58.942 26.3791 58.696C26.6731 58.45 27.1381 58.327 27.7741 58.327H29.2771V58.039C29.2771 57.631 29.1631 57.322 28.9351 57.112C28.7071 56.896 28.3741 56.788 27.9361 56.788C27.6361 56.788 27.3481 56.839 27.0721 56.941C26.7961 57.037 26.5591 57.172 26.3611 57.346L26.0731 56.869C26.3131 56.665 26.6011 56.509 26.9371 56.401C27.2731 56.287 27.6271 56.23 27.9991 56.23ZM27.7741 60.541C28.1341 60.541 28.4431 60.46 28.7011 60.298C28.9591 60.13 29.1511 59.89 29.2771 59.578V58.804H27.7921C26.9821 58.804 26.5771 59.086 26.5771 59.65C26.5771 59.926 26.6821 60.145 26.8921 60.307C27.1021 60.463 27.3961 60.541 27.7741 60.541ZM28.6291 55.474C28.4911 55.474 28.3681 55.444 28.2601 55.384C28.1521 55.318 28.0351 55.228 27.9091 55.114C27.8011 55.024 27.7141 54.961 27.6481 54.925C27.5881 54.883 27.5221 54.862 27.4501 54.862C27.3121 54.862 27.2011 54.913 27.1171 55.015C27.0331 55.117 26.9881 55.258 26.9821 55.438H26.5951C26.6071 55.138 26.6851 54.898 26.8291 54.718C26.9731 54.538 27.1651 54.448 27.4051 54.448C27.5431 54.448 27.6631 54.478 27.7651 54.538C27.8731 54.598 27.9961 54.688 28.1341 54.808C28.2301 54.892 28.3111 54.955 28.3771 54.997C28.4431 55.039 28.5121 55.06 28.5841 55.06C28.7161 55.06 28.8241 55.012 28.9081 54.916C28.9921 54.814 29.0401 54.676 29.0521 54.502H29.4391C29.4271 54.796 29.3491 55.033 29.2051 55.213C29.0611 55.387 28.8691 55.474 28.6291 55.474ZM33.6043 61.045C33.1483 61.045 32.7373 60.943 32.3713 60.739C32.0053 60.529 31.7173 60.241 31.5073 59.875C31.2973 59.509 31.1923 59.095 31.1923 58.633C31.1923 58.171 31.2973 57.757 31.5073 57.391C31.7173 57.025 32.0053 56.74 32.3713 56.536C32.7373 56.332 33.1483 56.23 33.6043 56.23C34.0603 56.23 34.4713 56.332 34.8373 56.536C35.2033 56.74 35.4883 57.025 35.6923 57.391C35.9023 57.757 36.0073 58.171 36.0073 58.633C36.0073 59.095 35.9023 59.509 35.6923 59.875C35.4883 60.241 35.2033 60.529 34.8373 60.739C34.4713 60.943 34.0603 61.045 33.6043 61.045ZM33.6043 60.478C33.9403 60.478 34.2403 60.403 34.5043 60.253C34.7743 60.097 34.9843 59.878 35.1343 59.596C35.2843 59.314 35.3593 58.993 35.3593 58.633C35.3593 58.273 35.2843 57.952 35.1343 57.67C34.9843 57.388 34.7743 57.172 34.5043 57.022C34.2403 56.866 33.9403 56.788 33.6043 56.788C33.2683 56.788 32.9653 56.866 32.6953 57.022C32.4313 57.172 32.2213 57.388 32.0653 57.67C31.9153 57.952 31.8403 58.273 31.8403 58.633C31.8403 58.993 31.9153 59.314 32.0653 59.596C32.2213 59.878 32.4313 60.097 32.6953 60.253C32.9653 60.403 33.2683 60.478 33.6043 60.478ZM43.7894 58.831H39.8294C39.8654 59.323 40.0544 59.722 40.3964 60.028C40.7384 60.328 41.1704 60.478 41.6924 60.478C41.9864 60.478 42.2564 60.427 42.5024 60.325C42.7484 60.217 42.9614 60.061 43.1414 59.857L43.5014 60.271C43.2914 60.523 43.0274 60.715 42.7094 60.847C42.3974 60.979 42.0524 61.045 41.6744 61.045C41.1884 61.045 40.7564 60.943 40.3784 60.739C40.0064 60.529 39.7154 60.241 39.5054 59.875C39.2954 59.509 39.1904 59.095 39.1904 58.633C39.1904 58.171 39.2894 57.757 39.4874 57.391C39.6914 57.025 39.9674 56.74 40.3154 56.536C40.6694 56.332 41.0654 56.23 41.5034 56.23C41.9414 56.23 42.3344 56.332 42.6824 56.536C43.0304 56.74 43.3034 57.025 43.5014 57.391C43.6994 57.751 43.7984 58.165 43.7984 58.633L43.7894 58.831ZM41.5034 56.779C41.0474 56.779 40.6634 56.926 40.3514 57.22C40.0454 57.508 39.8714 57.886 39.8294 58.354H43.1864C43.1444 57.886 42.9674 57.508 42.6554 57.22C42.3494 56.926 41.9654 56.779 41.5034 56.779ZM51.5405 59.317H48.0305L47.2745 61H46.5815L49.4615 54.7H50.1185L52.9985 61H52.2965L51.5405 59.317ZM51.2975 58.777L49.7855 55.393L48.2735 58.777H51.2975ZM55.8237 61.045C55.3557 61.045 54.9357 60.943 54.5637 60.739C54.1977 60.535 53.9097 60.25 53.6997 59.884C53.4897 59.512 53.3847 59.095 53.3847 58.633C53.3847 58.171 53.4897 57.757 53.6997 57.391C53.9097 57.025 54.1977 56.74 54.5637 56.536C54.9357 56.332 55.3557 56.23 55.8237 56.23C56.2317 56.23 56.5947 56.311 56.9127 56.473C57.2367 56.629 57.4917 56.86 57.6777 57.166L57.2007 57.49C57.0447 57.256 56.8467 57.082 56.6067 56.968C56.3667 56.848 56.1057 56.788 55.8237 56.788C55.4817 56.788 55.1727 56.866 54.8967 57.022C54.6267 57.172 54.4137 57.388 54.2577 57.67C54.1077 57.952 54.0327 58.273 54.0327 58.633C54.0327 58.999 54.1077 59.323 54.2577 59.605C54.4137 59.881 54.6267 60.097 54.8967 60.253C55.1727 60.403 55.4817 60.478 55.8237 60.478C56.1057 60.478 56.3667 60.421 56.6067 60.307C56.8467 60.193 57.0447 60.019 57.2007 59.785L57.6777 60.109C57.4917 60.415 57.2367 60.649 56.9127 60.811C56.5887 60.967 56.2257 61.045 55.8237 61.045ZM60.7889 61.045C60.3329 61.045 59.9219 60.943 59.5559 60.739C59.1899 60.529 58.9019 60.241 58.6919 59.875C58.4819 59.509 58.3769 59.095 58.3769 58.633C58.3769 58.171 58.4819 57.757 58.6919 57.391C58.9019 57.025 59.1899 56.74 59.5559 56.536C59.9219 56.332 60.3329 56.23 60.7889 56.23C61.2449 56.23 61.6559 56.332 62.0219 56.536C62.3879 56.74 62.6729 57.025 62.8769 57.391C63.0869 57.757 63.1919 58.171 63.1919 58.633C63.1919 59.095 63.0869 59.509 62.8769 59.875C62.6729 60.241 62.3879 60.529 62.0219 60.739C61.6559 60.943 61.2449 61.045 60.7889 61.045ZM60.7889 60.478C61.1249 60.478 61.4249 60.403 61.6889 60.253C61.9589 60.097 62.1689 59.878 62.3189 59.596C62.4689 59.314 62.5439 58.993 62.5439 58.633C62.5439 58.273 62.4689 57.952 62.3189 57.67C62.1689 57.388 61.9589 57.172 61.6889 57.022C61.4249 56.866 61.1249 56.788 60.7889 56.788C60.4529 56.788 60.1499 56.866 59.8799 57.022C59.6159 57.172 59.4059 57.388 59.2499 57.67C59.0999 57.952 59.0249 58.273 59.0249 58.633C59.0249 58.993 59.0999 59.314 59.2499 59.596C59.4059 59.878 59.6159 60.097 59.8799 60.253C60.1499 60.403 60.4529 60.478 60.7889 60.478ZM70.4005 56.23C70.9945 56.23 71.4595 56.401 71.7955 56.743C72.1375 57.085 72.3085 57.589 72.3085 58.255V61H71.6695V58.318C71.6695 57.826 71.5495 57.451 71.3095 57.193C71.0755 56.935 70.7425 56.806 70.3105 56.806C69.8185 56.806 69.4315 56.959 69.1495 57.265C68.8675 57.565 68.7265 57.982 68.7265 58.516V61H68.0875V58.318C68.0875 57.826 67.9675 57.451 67.7275 57.193C67.4935 56.935 67.1575 56.806 66.7195 56.806C66.2335 56.806 65.8465 56.959 65.5585 57.265C65.2765 57.565 65.1355 57.982 65.1355 58.516V61H64.4965V56.266H65.1085V57.13C65.2765 56.842 65.5105 56.62 65.8105 56.464C66.1105 56.308 66.4555 56.23 66.8455 56.23C67.2415 56.23 67.5835 56.314 67.8715 56.482C68.1655 56.65 68.3845 56.899 68.5285 57.229C68.7025 56.917 68.9515 56.674 69.2755 56.5C69.6055 56.32 69.9805 56.23 70.4005 56.23ZM76.4804 56.23C76.9244 56.23 77.3264 56.332 77.6864 56.536C78.0464 56.734 78.3284 57.016 78.5324 57.382C78.7364 57.748 78.8384 58.165 78.8384 58.633C78.8384 59.107 78.7364 59.527 78.5324 59.893C78.3284 60.259 78.0464 60.544 77.6864 60.748C77.3324 60.946 76.9304 61.045 76.4804 61.045C76.0964 61.045 75.7484 60.967 75.4364 60.811C75.1304 60.649 74.8784 60.415 74.6804 60.109V62.746H74.0414V56.266H74.6534V57.202C74.8454 56.89 75.0974 56.65 75.4094 56.482C75.7274 56.314 76.0844 56.23 76.4804 56.23ZM76.4354 60.478C76.7654 60.478 77.0654 60.403 77.3354 60.253C77.6054 60.097 77.8154 59.878 77.9654 59.596C78.1214 59.314 78.1994 58.993 78.1994 58.633C78.1994 58.273 78.1214 57.955 77.9654 57.679C77.8154 57.397 77.6054 57.178 77.3354 57.022C77.0654 56.866 76.7654 56.788 76.4354 56.788C76.0994 56.788 75.7964 56.866 75.5264 57.022C75.2624 57.178 75.0524 57.397 74.8964 57.679C74.7464 57.955 74.6714 58.273 74.6714 58.633C74.6714 58.993 74.7464 59.314 74.8964 59.596C75.0524 59.878 75.2624 60.097 75.5264 60.253C75.7964 60.403 76.0994 60.478 76.4354 60.478ZM81.7706 56.23C82.3886 56.23 82.8626 56.386 83.1926 56.698C83.5226 57.004 83.6876 57.46 83.6876 58.066V61H83.0756V60.262C82.9316 60.508 82.7186 60.7 82.4366 60.838C82.1606 60.976 81.8306 61.045 81.4466 61.045C80.9186 61.045 80.4986 60.919 80.1866 60.667C79.8746 60.415 79.7186 60.082 79.7186 59.668C79.7186 59.266 79.8626 58.942 80.1506 58.696C80.4446 58.45 80.9096 58.327 81.5456 58.327H83.0486V58.039C83.0486 57.631 82.9346 57.322 82.7066 57.112C82.4786 56.896 82.1456 56.788 81.7076 56.788C81.4076 56.788 81.1196 56.839 80.8436 56.941C80.5676 57.037 80.3306 57.172 80.1326 57.346L79.8446 56.869C80.0846 56.665 80.3726 56.509 80.7086 56.401C81.0446 56.287 81.3986 56.23 81.7706 56.23ZM81.5456 60.541C81.9056 60.541 82.2146 60.46 82.4726 60.298C82.7306 60.13 82.9226 59.89 83.0486 59.578V58.804H81.5636C80.7536 58.804 80.3486 59.086 80.3486 59.65C80.3486 59.926 80.4536 60.145 80.6636 60.307C80.8736 60.463 81.1676 60.541 81.5456 60.541ZM87.8352 56.23C88.4292 56.23 88.9002 56.404 89.2482 56.752C89.6022 57.094 89.7792 57.595 89.7792 58.255V61H89.1402V58.318C89.1402 57.826 89.0172 57.451 88.7712 57.193C88.5252 56.935 88.1742 56.806 87.7182 56.806C87.2082 56.806 86.8032 56.959 86.5032 57.265C86.2092 57.565 86.0622 57.982 86.0622 58.516V61H85.4232V56.266H86.0352V57.139C86.2092 56.851 86.4492 56.629 86.7552 56.473C87.0672 56.311 87.4272 56.23 87.8352 56.23ZM93.926 56.23C94.52 56.23 94.991 56.404 95.339 56.752C95.693 57.094 95.87 57.595 95.87 58.255V61H95.231V58.318C95.231 57.826 95.108 57.451 94.862 57.193C94.616 56.935 94.265 56.806 93.809 56.806C93.299 56.806 92.894 56.959 92.594 57.265C92.3 57.565 92.153 57.982 92.153 58.516V61H91.514V54.322H92.153V57.094C92.327 56.818 92.567 56.605 92.873 56.455C93.179 56.305 93.53 56.23 93.926 56.23ZM99.2609 56.23C99.8789 56.23 100.353 56.386 100.683 56.698C101.013 57.004 101.178 57.46 101.178 58.066V61H100.566V60.262C100.422 60.508 100.209 60.7 99.9269 60.838C99.6509 60.976 99.3209 61.045 98.9369 61.045C98.4089 61.045 97.9889 60.919 97.6769 60.667C97.3649 60.415 97.2089 60.082 97.2089 59.668C97.2089 59.266 97.3529 58.942 97.6409 58.696C97.9349 58.45 98.3999 58.327 99.0359 58.327H100.539V58.039C100.539 57.631 100.425 57.322 100.197 57.112C99.9689 56.896 99.6359 56.788 99.1979 56.788C98.8979 56.788 98.6099 56.839 98.3339 56.941C98.0579 57.037 97.8209 57.172 97.6229 57.346L97.3349 56.869C97.5749 56.665 97.8629 56.509 98.1989 56.401C98.5349 56.287 98.8889 56.23 99.2609 56.23ZM99.0359 60.541C99.3959 60.541 99.7049 60.46 99.9629 60.298C100.221 60.13 100.413 59.89 100.539 59.578V58.804H99.0539C98.2439 58.804 97.8389 59.086 97.8389 59.65C97.8389 59.926 97.9439 60.145 98.1539 60.307C98.3639 60.463 98.6579 60.541 99.0359 60.541ZM108.817 56.23C109.411 56.23 109.876 56.401 110.212 56.743C110.554 57.085 110.725 57.589 110.725 58.255V61H110.086V58.318C110.086 57.826 109.966 57.451 109.726 57.193C109.492 56.935 109.159 56.806 108.727 56.806C108.235 56.806 107.848 56.959 107.566 57.265C107.284 57.565 107.143 57.982 107.143 58.516V61H106.504V58.318C106.504 57.826 106.384 57.451 106.144 57.193C105.91 56.935 105.574 56.806 105.136 56.806C104.65 56.806 104.263 56.959 103.975 57.265C103.693 57.565 103.552 57.982 103.552 58.516V61H102.913V56.266H103.525V57.13C103.693 56.842 103.927 56.62 104.227 56.464C104.527 56.308 104.872 56.23 105.262 56.23C105.658 56.23 106 56.314 106.288 56.482C106.582 56.65 106.801 56.899 106.945 57.229C107.119 56.917 107.368 56.674 107.692 56.5C108.022 56.32 108.397 56.23 108.817 56.23ZM116.598 58.831H112.638C112.674 59.323 112.863 59.722 113.205 60.028C113.547 60.328 113.979 60.478 114.501 60.478C114.795 60.478 115.065 60.427 115.311 60.325C115.557 60.217 115.77 60.061 115.95 59.857L116.31 60.271C116.1 60.523 115.836 60.715 115.518 60.847C115.206 60.979 114.861 61.045 114.483 61.045C113.997 61.045 113.565 60.943 113.187 60.739C112.815 60.529 112.524 60.241 112.314 59.875C112.104 59.509 111.999 59.095 111.999 58.633C111.999 58.171 112.098 57.757 112.296 57.391C112.5 57.025 112.776 56.74 113.124 56.536C113.478 56.332 113.874 56.23 114.312 56.23C114.75 56.23 115.143 56.332 115.491 56.536C115.839 56.74 116.112 57.025 116.31 57.391C116.508 57.751 116.607 58.165 116.607 58.633L116.598 58.831ZM114.312 56.779C113.856 56.779 113.472 56.926 113.16 57.22C112.854 57.508 112.68 57.886 112.638 58.354H115.995C115.953 57.886 115.776 57.508 115.464 57.22C115.158 56.926 114.774 56.779 114.312 56.779ZM120.32 56.23C120.914 56.23 121.385 56.404 121.733 56.752C122.087 57.094 122.264 57.595 122.264 58.255V61H121.625V58.318C121.625 57.826 121.502 57.451 121.256 57.193C121.01 56.935 120.659 56.806 120.203 56.806C119.693 56.806 119.288 56.959 118.988 57.265C118.694 57.565 118.547 57.982 118.547 58.516V61H117.908V56.266H118.52V57.139C118.694 56.851 118.934 56.629 119.24 56.473C119.552 56.311 119.912 56.23 120.32 56.23ZM126.491 60.712C126.371 60.82 126.221 60.904 126.041 60.964C125.867 61.018 125.684 61.045 125.492 61.045C125.048 61.045 124.706 60.925 124.466 60.685C124.226 60.445 124.106 60.106 124.106 59.668V56.806H123.26V56.266H124.106V55.231H124.745V56.266H126.185V56.806H124.745V59.632C124.745 59.914 124.814 60.13 124.952 60.28C125.096 60.424 125.3 60.496 125.564 60.496C125.696 60.496 125.822 60.475 125.942 60.433C126.068 60.391 126.176 60.331 126.266 60.253L126.491 60.712ZM129.423 61.045C128.967 61.045 128.556 60.943 128.19 60.739C127.824 60.529 127.536 60.241 127.326 59.875C127.116 59.509 127.011 59.095 127.011 58.633C127.011 58.171 127.116 57.757 127.326 57.391C127.536 57.025 127.824 56.74 128.19 56.536C128.556 56.332 128.967 56.23 129.423 56.23C129.879 56.23 130.29 56.332 130.656 56.536C131.022 56.74 131.307 57.025 131.511 57.391C131.721 57.757 131.826 58.171 131.826 58.633C131.826 59.095 131.721 59.509 131.511 59.875C131.307 60.241 131.022 60.529 130.656 60.739C130.29 60.943 129.879 61.045 129.423 61.045ZM129.423 60.478C129.759 60.478 130.059 60.403 130.323 60.253C130.593 60.097 130.803 59.878 130.953 59.596C131.103 59.314 131.178 58.993 131.178 58.633C131.178 58.273 131.103 57.952 130.953 57.67C130.803 57.388 130.593 57.172 130.323 57.022C130.059 56.866 129.759 56.788 129.423 56.788C129.087 56.788 128.784 56.866 128.514 57.022C128.25 57.172 128.04 57.388 127.884 57.67C127.734 57.952 127.659 58.273 127.659 58.633C127.659 58.993 127.734 59.314 127.884 59.596C128.04 59.878 128.25 60.097 128.514 60.253C128.784 60.403 129.087 60.478 129.423 60.478ZM137.358 61.054C136.89 61.054 136.44 60.979 136.008 60.829C135.582 60.679 135.252 60.481 135.018 60.235L135.279 59.722C135.507 59.95 135.81 60.136 136.188 60.28C136.566 60.418 136.956 60.487 137.358 60.487C137.922 60.487 138.345 60.385 138.627 60.181C138.909 59.971 139.05 59.701 139.05 59.371C139.05 59.119 138.972 58.918 138.816 58.768C138.666 58.618 138.48 58.504 138.258 58.426C138.036 58.342 137.727 58.252 137.331 58.156C136.857 58.036 136.479 57.922 136.197 57.814C135.915 57.7 135.672 57.529 135.468 57.301C135.27 57.073 135.171 56.764 135.171 56.374C135.171 56.056 135.255 55.768 135.423 55.51C135.591 55.246 135.849 55.036 136.197 54.88C136.545 54.724 136.977 54.646 137.493 54.646C137.853 54.646 138.204 54.697 138.546 54.799C138.894 54.895 139.194 55.03 139.446 55.204L139.221 55.735C138.957 55.561 138.675 55.432 138.375 55.348C138.075 55.258 137.781 55.213 137.493 55.213C136.941 55.213 136.524 55.321 136.242 55.537C135.966 55.747 135.828 56.02 135.828 56.356C135.828 56.608 135.903 56.812 136.053 56.968C136.209 57.118 136.401 57.235 136.629 57.319C136.863 57.397 137.175 57.484 137.565 57.58C138.027 57.694 138.399 57.808 138.681 57.922C138.969 58.03 139.212 58.198 139.41 58.426C139.608 58.648 139.707 58.951 139.707 59.335C139.707 59.653 139.62 59.944 139.446 60.208C139.278 60.466 139.017 60.673 138.663 60.829C138.309 60.979 137.874 61.054 137.358 61.054ZM142.958 61.045C142.502 61.045 142.091 60.943 141.725 60.739C141.359 60.529 141.071 60.241 140.861 59.875C140.651 59.509 140.546 59.095 140.546 58.633C140.546 58.171 140.651 57.757 140.861 57.391C141.071 57.025 141.359 56.74 141.725 56.536C142.091 56.332 142.502 56.23 142.958 56.23C143.414 56.23 143.825 56.332 144.191 56.536C144.557 56.74 144.842 57.025 145.046 57.391C145.256 57.757 145.361 58.171 145.361 58.633C145.361 59.095 145.256 59.509 145.046 59.875C144.842 60.241 144.557 60.529 144.191 60.739C143.825 60.943 143.414 61.045 142.958 61.045ZM142.958 60.478C143.294 60.478 143.594 60.403 143.858 60.253C144.128 60.097 144.338 59.878 144.488 59.596C144.638 59.314 144.713 58.993 144.713 58.633C144.713 58.273 144.638 57.952 144.488 57.67C144.338 57.388 144.128 57.172 143.858 57.022C143.594 56.866 143.294 56.788 142.958 56.788C142.622 56.788 142.319 56.866 142.049 57.022C141.785 57.172 141.575 57.388 141.419 57.67C141.269 57.952 141.194 58.273 141.194 58.633C141.194 58.993 141.269 59.314 141.419 59.596C141.575 59.878 141.785 60.097 142.049 60.253C142.319 60.403 142.622 60.478 142.958 60.478ZM148.627 61.045C148.159 61.045 147.739 60.943 147.367 60.739C147.001 60.535 146.713 60.25 146.503 59.884C146.293 59.512 146.188 59.095 146.188 58.633C146.188 58.171 146.293 57.757 146.503 57.391C146.713 57.025 147.001 56.74 147.367 56.536C147.739 56.332 148.159 56.23 148.627 56.23C149.035 56.23 149.398 56.311 149.716 56.473C150.04 56.629 150.295 56.86 150.481 57.166L150.004 57.49C149.848 57.256 149.65 57.082 149.41 56.968C149.17 56.848 148.909 56.788 148.627 56.788C148.285 56.788 147.976 56.866 147.7 57.022C147.43 57.172 147.217 57.388 147.061 57.67C146.911 57.952 146.836 58.273 146.836 58.633C146.836 58.999 146.911 59.323 147.061 59.605C147.217 59.881 147.43 60.097 147.7 60.253C147.976 60.403 148.285 60.478 148.627 60.478C148.909 60.478 149.17 60.421 149.41 60.307C149.65 60.193 149.848 60.019 150.004 59.785L150.481 60.109C150.295 60.415 150.04 60.649 149.716 60.811C149.392 60.967 149.029 61.045 148.627 61.045ZM151.737 56.266H152.376V61H151.737V56.266ZM152.061 55.231C151.929 55.231 151.818 55.186 151.728 55.096C151.638 55.006 151.593 54.898 151.593 54.772C151.593 54.652 151.638 54.547 151.728 54.457C151.818 54.367 151.929 54.322 152.061 54.322C152.193 54.322 152.304 54.367 152.394 54.457C152.484 54.541 152.529 54.643 152.529 54.763C152.529 54.895 152.484 55.006 152.394 55.096C152.304 55.186 152.193 55.231 152.061 55.231ZM156.089 61.045C155.633 61.045 155.222 60.943 154.856 60.739C154.49 60.529 154.202 60.241 153.992 59.875C153.782 59.509 153.677 59.095 153.677 58.633C153.677 58.171 153.782 57.757 153.992 57.391C154.202 57.025 154.49 56.74 154.856 56.536C155.222 56.332 155.633 56.23 156.089 56.23C156.545 56.23 156.956 56.332 157.322 56.536C157.688 56.74 157.973 57.025 158.177 57.391C158.387 57.757 158.492 58.171 158.492 58.633C158.492 59.095 158.387 59.509 158.177 59.875C157.973 60.241 157.688 60.529 157.322 60.739C156.956 60.943 156.545 61.045 156.089 61.045ZM156.089 60.478C156.425 60.478 156.725 60.403 156.989 60.253C157.259 60.097 157.469 59.878 157.619 59.596C157.769 59.314 157.844 58.993 157.844 58.633C157.844 58.273 157.769 57.952 157.619 57.67C157.469 57.388 157.259 57.172 156.989 57.022C156.725 56.866 156.425 56.788 156.089 56.788C155.753 56.788 155.45 56.866 155.18 57.022C154.916 57.172 154.706 57.388 154.55 57.67C154.4 57.952 154.325 58.273 154.325 58.633C154.325 58.993 154.4 59.314 154.55 59.596C154.706 59.878 154.916 60.097 155.18 60.253C155.45 60.403 155.753 60.478 156.089 60.478ZM163.918 58.831H159.958C159.994 59.323 160.183 59.722 160.525 60.028C160.867 60.328 161.299 60.478 161.821 60.478C162.115 60.478 162.385 60.427 162.631 60.325C162.877 60.217 163.09 60.061 163.27 59.857L163.63 60.271C163.42 60.523 163.156 60.715 162.838 60.847C162.526 60.979 162.181 61.045 161.803 61.045C161.317 61.045 160.885 60.943 160.507 60.739C160.135 60.529 159.844 60.241 159.634 59.875C159.424 59.509 159.319 59.095 159.319 58.633C159.319 58.171 159.418 57.757 159.616 57.391C159.82 57.025 160.096 56.74 160.444 56.536C160.798 56.332 161.194 56.23 161.632 56.23C162.07 56.23 162.463 56.332 162.811 56.536C163.159 56.74 163.432 57.025 163.63 57.391C163.828 57.751 163.927 58.165 163.927 58.633L163.918 58.831ZM161.632 56.779C161.176 56.779 160.792 56.926 160.48 57.22C160.174 57.508 160 57.886 159.958 58.354H163.315C163.273 57.886 163.096 57.508 162.784 57.22C162.478 56.926 162.094 56.779 161.632 56.779ZM169.548 54.322V61H168.936V60.064C168.744 60.382 168.489 60.625 168.171 60.793C167.859 60.961 167.505 61.045 167.109 61.045C166.665 61.045 166.263 60.943 165.903 60.739C165.543 60.535 165.261 60.25 165.057 59.884C164.853 59.518 164.751 59.101 164.751 58.633C164.751 58.165 164.853 57.748 165.057 57.382C165.261 57.016 165.543 56.734 165.903 56.536C166.263 56.332 166.665 56.23 167.109 56.23C167.493 56.23 167.838 56.311 168.144 56.473C168.456 56.629 168.711 56.86 168.909 57.166V54.322H169.548ZM167.163 60.478C167.493 60.478 167.79 60.403 168.054 60.253C168.324 60.097 168.534 59.878 168.684 59.596C168.84 59.314 168.918 58.993 168.918 58.633C168.918 58.273 168.84 57.952 168.684 57.67C168.534 57.388 168.324 57.172 168.054 57.022C167.79 56.866 167.493 56.788 167.163 56.788C166.827 56.788 166.524 56.866 166.254 57.022C165.99 57.172 165.78 57.388 165.624 57.67C165.474 57.952 165.399 58.273 165.399 58.633C165.399 58.993 165.474 59.314 165.624 59.596C165.78 59.878 165.99 60.097 166.254 60.253C166.524 60.403 166.827 60.478 167.163 60.478ZM175.594 56.266V61H174.982V60.136C174.814 60.424 174.583 60.649 174.289 60.811C173.995 60.967 173.659 61.045 173.281 61.045C172.663 61.045 172.174 60.874 171.814 60.532C171.46 60.184 171.283 59.677 171.283 59.011V56.266H171.922V58.948C171.922 59.446 172.045 59.824 172.291 60.082C172.537 60.34 172.888 60.469 173.344 60.469C173.842 60.469 174.235 60.319 174.523 60.019C174.811 59.713 174.955 59.29 174.955 58.75V56.266H175.594ZM179.345 61.045C178.877 61.045 178.457 60.943 178.085 60.739C177.719 60.535 177.431 60.25 177.221 59.884C177.011 59.512 176.906 59.095 176.906 58.633C176.906 58.171 177.011 57.757 177.221 57.391C177.431 57.025 177.719 56.74 178.085 56.536C178.457 56.332 178.877 56.23 179.345 56.23C179.753 56.23 180.116 56.311 180.434 56.473C180.758 56.629 181.013 56.86 181.199 57.166L180.722 57.49C180.566 57.256 180.368 57.082 180.128 56.968C179.888 56.848 179.627 56.788 179.345 56.788C179.003 56.788 178.694 56.866 178.418 57.022C178.148 57.172 177.935 57.388 177.779 57.67C177.629 57.952 177.554 58.273 177.554 58.633C177.554 58.999 177.629 59.323 177.779 59.605C177.935 59.881 178.148 60.097 178.418 60.253C178.694 60.403 179.003 60.478 179.345 60.478C179.627 60.478 179.888 60.421 180.128 60.307C180.368 60.193 180.566 60.019 180.722 59.785L181.199 60.109C181.013 60.415 180.758 60.649 180.434 60.811C180.11 60.967 179.747 61.045 179.345 61.045ZM184.11 56.23C184.728 56.23 185.202 56.386 185.532 56.698C185.862 57.004 186.027 57.46 186.027 58.066V61H185.415V60.262C185.271 60.508 185.058 60.7 184.776 60.838C184.5 60.976 184.17 61.045 183.786 61.045C183.258 61.045 182.838 60.919 182.526 60.667C182.214 60.415 182.058 60.082 182.058 59.668C182.058 59.266 182.202 58.942 182.49 58.696C182.784 58.45 183.249 58.327 183.885 58.327H185.388V58.039C185.388 57.631 185.274 57.322 185.046 57.112C184.818 56.896 184.485 56.788 184.047 56.788C183.747 56.788 183.459 56.839 183.183 56.941C182.907 57.037 182.67 57.172 182.472 57.346L182.184 56.869C182.424 56.665 182.712 56.509 183.048 56.401C183.384 56.287 183.738 56.23 184.11 56.23ZM183.885 60.541C184.245 60.541 184.554 60.46 184.812 60.298C185.07 60.13 185.262 59.89 185.388 59.578V58.804H183.903C183.093 58.804 182.688 59.086 182.688 59.65C182.688 59.926 182.793 60.145 183.003 60.307C183.213 60.463 183.507 60.541 183.885 60.541ZM190.256 60.712C190.136 60.82 189.986 60.904 189.806 60.964C189.632 61.018 189.449 61.045 189.257 61.045C188.813 61.045 188.471 60.925 188.231 60.685C187.991 60.445 187.871 60.106 187.871 59.668V56.806H187.025V56.266H187.871V55.231H188.51V56.266H189.95V56.806H188.51V59.632C188.51 59.914 188.579 60.13 188.717 60.28C188.861 60.424 189.065 60.496 189.329 60.496C189.461 60.496 189.587 60.475 189.707 60.433C189.833 60.391 189.941 60.331 190.031 60.253L190.256 60.712ZM191.419 56.266H192.058V61H191.419V56.266ZM191.743 55.231C191.611 55.231 191.5 55.186 191.41 55.096C191.32 55.006 191.275 54.898 191.275 54.772C191.275 54.652 191.32 54.547 191.41 54.457C191.5 54.367 191.611 54.322 191.743 54.322C191.875 54.322 191.986 54.367 192.076 54.457C192.166 54.541 192.211 54.643 192.211 54.763C192.211 54.895 192.166 55.006 192.076 55.096C191.986 55.186 191.875 55.231 191.743 55.231ZM197.814 56.266L195.708 61H195.051L192.954 56.266H193.62L195.393 60.298L197.184 56.266H197.814ZM200.517 61.045C200.061 61.045 199.65 60.943 199.284 60.739C198.918 60.529 198.63 60.241 198.42 59.875C198.21 59.509 198.105 59.095 198.105 58.633C198.105 58.171 198.21 57.757 198.42 57.391C198.63 57.025 198.918 56.74 199.284 56.536C199.65 56.332 200.061 56.23 200.517 56.23C200.973 56.23 201.384 56.332 201.75 56.536C202.116 56.74 202.401 57.025 202.605 57.391C202.815 57.757 202.92 58.171 202.92 58.633C202.92 59.095 202.815 59.509 202.605 59.875C202.401 60.241 202.116 60.529 201.75 60.739C201.384 60.943 200.973 61.045 200.517 61.045ZM200.517 60.478C200.853 60.478 201.153 60.403 201.417 60.253C201.687 60.097 201.897 59.878 202.047 59.596C202.197 59.314 202.272 58.993 202.272 58.633C202.272 58.273 202.197 57.952 202.047 57.67C201.897 57.388 201.687 57.172 201.417 57.022C201.153 56.866 200.853 56.788 200.517 56.788C200.181 56.788 199.878 56.866 199.608 57.022C199.344 57.172 199.134 57.388 198.978 57.67C198.828 57.952 198.753 58.273 198.753 58.633C198.753 58.993 198.828 59.314 198.978 59.596C199.134 59.878 199.344 60.097 199.608 60.253C199.878 60.403 200.181 60.478 200.517 60.478Z" fill="#05416B"/>
<path d="M223.218 33.378C223.161 33.3071 223.093 33.2456 223.017 33.1961L221.905 32.4857L215.426 28.3314L215.088 28.1149L213.672 27.2051L212.209 26.2789C212.123 26.2154 212.033 26.1576 211.939 26.1061C210.402 25.0724 208.591 24.5214 206.739 24.5238C205.504 24.523 204.282 24.7652 203.141 25.2369C202 25.7085 200.964 26.4004 200.09 27.2727C199.217 28.145 198.524 29.1808 198.051 30.3209C197.578 31.4611 197.334 32.6832 197.334 33.9176C197.332 36.4102 198.321 38.8013 200.083 40.5649C201.844 42.3285 204.234 43.3201 206.727 43.3217C208.581 43.3221 210.395 42.7741 211.939 41.7466C212.019 41.6985 212.096 41.6463 212.171 41.5903L213.648 40.6431L215.063 39.7274L215.401 39.5109L221.881 35.3526L223.01 34.637C223.105 34.5761 223.186 34.4971 223.25 34.4046C223.315 34.3122 223.36 34.208 223.383 34.098C223.407 33.9881 223.409 33.8746 223.389 33.7639C223.369 33.6533 223.327 33.5477 223.266 33.4532C223.249 33.4264 223.23 33.4006 223.21 33.3759L223.218 33.378ZM206.758 38.1934C205.625 38.1939 204.539 37.7447 203.738 36.9446C202.937 36.1444 202.487 35.0589 202.486 33.9267C202.486 33.3659 202.596 32.8107 202.81 32.2925C203.024 31.7744 203.339 31.3035 203.735 30.9068C204.131 30.5101 204.602 30.1953 205.12 29.9805C205.638 29.7656 206.193 29.6549 206.754 29.6547C207.885 29.6542 208.971 30.1029 209.772 30.9024C210.573 31.7018 211.024 32.7865 211.026 33.9182C211.026 34.479 210.917 35.0344 210.703 35.5528C210.489 36.0713 210.175 36.5425 209.779 36.9396C209.383 37.3367 208.913 37.6519 208.395 37.8671C207.878 38.0824 207.322 38.1934 206.762 38.194L206.758 38.1934Z" fill="#A3CA44"/>
<path d="M229.248 34.4618C229.305 34.5312 229.372 34.5912 229.448 34.6397L230.56 35.3553L237.04 39.514L237.378 39.7306L238.793 40.6463L240.271 41.5942C240.352 41.6505 240.423 41.7048 240.503 41.7506C241.53 42.4359 242.682 42.9122 243.893 43.1524C245.104 43.3925 246.351 43.3916 247.561 43.15C248.772 42.9083 249.924 42.4306 250.95 41.744C251.976 41.0574 252.857 40.1755 253.542 39.1485C254.227 38.1215 254.704 36.9695 254.944 35.7583C255.184 34.5472 255.183 33.3006 254.941 32.0898C254.7 30.879 254.222 29.7277 253.535 28.7016C252.848 27.6755 251.967 26.7947 250.939 26.1094C249.394 25.0785 247.579 24.5283 245.721 24.5283C243.864 24.5283 242.048 25.0785 240.503 26.1094C240.415 26.1631 240.333 26.2173 240.233 26.2821L238.79 27.2083L237.375 28.1182L237.038 28.3348L230.557 32.4889L229.445 33.1994C229.369 33.2488 229.302 33.3101 229.245 33.3811C229.12 33.5336 229.052 33.7247 229.053 33.9219C229.053 34.119 229.122 34.3099 229.248 34.4618ZM241.44 33.9207C241.441 32.7884 241.892 31.7029 242.693 30.903C243.495 30.1031 244.581 29.6542 245.714 29.6553C246.846 29.6565 247.932 30.1075 248.731 30.9091C249.531 31.7106 249.98 32.797 249.979 33.9294C249.979 34.4901 249.868 35.0452 249.653 35.563C249.438 36.0809 249.122 36.5512 248.726 36.9473C248.329 37.3434 247.858 37.6574 247.339 37.8714C246.821 38.0855 246.266 38.1954 245.705 38.1948V38.1948C244.574 38.1927 243.489 37.7415 242.69 36.9404C241.891 36.1393 241.443 35.0537 241.444 33.9222L241.44 33.9207Z" fill="#0F6BB5"/>
<path d="M226.777 30.9029C226.848 30.8471 226.91 30.7795 226.958 30.7032L227.67 29.5913L231.824 23.1117L232.042 22.7742L232.949 21.3587L233.876 19.9007C233.939 19.8145 233.996 19.7242 234.048 19.6305C235.082 18.0929 235.633 16.2815 235.631 14.4284C235.635 13.1942 235.396 11.9711 234.928 10.8292C234.459 9.68732 233.77 8.64884 232.9 7.77315C232.031 6.89745 230.997 6.20169 229.858 5.72554C228.719 5.24939 227.498 5.00225 226.264 4.99813C223.771 4.98979 221.377 5.97182 219.609 7.72843C217.84 9.48504 216.842 11.8722 216.833 14.3649C216.828 16.2382 217.381 18.0707 218.424 19.6273C218.467 19.7077 218.523 19.7784 218.577 19.8595L219.504 21.3475L220.419 22.7637L220.635 23.1013L224.795 29.5809L225.518 30.6994C225.579 30.794 225.658 30.8756 225.75 30.9396C225.843 31.0036 225.947 31.0488 226.057 31.0724C226.167 31.0961 226.281 31.098 226.391 31.0777C226.502 31.0575 226.608 31.0155 226.702 30.9544C226.729 30.9375 226.755 30.919 226.779 30.8989L226.777 30.9029ZM221.961 14.4434C221.961 13.3111 222.41 12.2249 223.21 11.4238C224.01 10.6226 225.096 10.1721 226.228 10.1714C226.789 10.1711 227.344 10.2812 227.863 10.4955C228.381 10.7097 228.852 11.024 229.248 11.4203C229.645 11.8165 229.96 12.287 230.175 12.805C230.39 13.3229 230.5 13.8781 230.5 14.4388C230.501 15.5704 230.052 16.656 229.253 17.457C228.453 18.258 227.369 18.7089 226.237 18.7108C225.105 18.7122 224.018 18.2639 223.217 17.4644C222.415 16.6649 221.963 15.5797 221.962 14.4474L221.961 14.4434Z" fill="#05416B"/>
<path d="M225.694 36.9369C225.624 36.9924 225.564 37.0587 225.515 37.1332L224.8 38.2614L220.641 44.7417L220.424 45.0799L219.503 46.487L218.556 47.9651C218.501 48.0456 218.444 48.1162 218.402 48.1967C217.019 50.2705 216.516 52.8088 217.004 55.2533C217.493 57.6977 218.932 59.848 221.006 61.2311C223.08 62.6143 225.618 63.1171 228.062 62.6288C230.507 62.1404 232.657 60.7009 234.04 58.6271C235.07 57.0829 235.62 55.2682 235.62 53.412C235.62 51.5557 235.07 49.741 234.04 48.1967C233.986 48.1084 233.932 48.0267 233.868 47.9266L232.946 46.4876L232.039 45.0721L231.821 44.7339L227.667 38.2543L226.951 37.1423C226.9 37.0668 226.838 37.0004 226.765 36.946C226.614 36.8217 226.425 36.7534 226.229 36.7525C226.034 36.7515 225.844 36.8179 225.691 36.9408L225.694 36.9369ZM226.234 49.1288C227.367 49.1299 228.452 49.5806 229.252 50.3818C230.052 51.183 230.502 52.2691 230.501 53.4015C230.5 54.5338 230.049 55.6195 229.248 56.4197C228.447 57.2198 227.361 57.669 226.228 57.6683C225.096 57.6675 224.01 57.2168 223.21 56.4155C222.41 55.6143 221.961 54.5279 221.962 53.3955V53.3955C221.964 52.264 222.415 51.1797 223.216 50.3807C224.017 49.5816 225.103 49.1332 226.234 49.1341V49.1288Z" fill="#1CB5A7"/>
<path d="M218.963 46.2245L219.944 44.6927C218.087 43.6078 216.539 42.0631 215.451 40.2074L213.919 41.1932C215.15 43.2695 216.884 45.0018 218.961 46.2298L218.963 46.2245Z" fill="#1CB5A7"/>
<path d="M232.519 44.694L233.5 46.222C235.576 44.9957 237.308 43.265 238.537 41.1905L237.006 40.2042C235.92 42.0608 234.375 43.6069 232.519 44.694V44.694Z" fill="#0F6BB5"/>
<path d="M233.498 21.6202L232.517 23.1411C234.373 24.2261 235.918 25.771 237.002 27.6269L238.534 26.6523C237.306 24.5778 235.574 22.8469 233.498 21.6202Z" fill="#05416B"/>
<path d="M213.928 26.6517L215.451 27.6407C216.538 25.7788 218.087 24.2291 219.948 23.1411L218.962 21.621C216.888 22.8489 215.157 24.5789 213.928 26.6517Z" fill="#A3CA44"/>
<path d="M222.079 40.9669L222.641 40.0916C221.579 39.4712 220.695 38.5875 220.075 37.5256L219.199 38.0894C219.902 39.2756 220.892 40.2655 222.079 40.9669V40.9669Z" fill="#1CB5A7"/>
<path d="M229.823 40.0779L230.388 40.9661C231.58 40.262 232.575 39.2674 233.278 38.075L232.403 37.5105C231.78 38.5753 230.891 39.4601 229.823 40.0779Z" fill="#0F6BB5"/>
<path d="M230.385 26.8897L229.822 27.7676C230.883 28.3869 231.766 29.2699 232.386 30.331L233.26 29.7692C232.559 28.5825 231.57 27.592 230.385 26.8897V26.8897Z" fill="#05416B"/>
<path d="M219.201 29.7679L220.076 30.3291C220.697 29.2689 221.581 28.3864 222.642 27.7663L222.077 26.8885C220.893 27.5922 219.903 28.5823 219.201 29.7679V29.7679Z" fill="#A3CA44"/>
<path d="M225.375 31.8668L225.105 31.424C224.508 31.6977 224.028 32.1772 223.755 32.7748L224.197 33.0449C224.422 32.5151 224.844 32.0933 225.374 31.8676L225.375 31.8668Z" fill="#A3CA44"/>
<path d="M228.286 33.066L228.732 32.7801C228.457 32.1832 227.978 31.704 227.381 31.4293L227.111 31.8715C227.643 32.102 228.064 32.5304 228.286 33.066V33.066Z" fill="#05416B"/>
<path d="M228.286 34.7809C228.058 35.3201 227.629 35.7494 227.09 35.9774L227.36 36.4194C227.958 36.1461 228.438 35.6666 228.711 35.0687L228.286 34.7809Z" fill="#0F6BB5"/>
<path d="M224.172 34.7816L223.729 35.0675C224.004 35.6644 224.483 36.1434 225.08 36.4182L225.351 35.9734C224.819 35.7433 224.396 35.3162 224.172 34.7816V34.7816Z" fill="#1CB5A7"/>
</svg>
