<svg width="263" height="68" viewBox="0 0 263 68" fill="none" xmlns="http://www.w3.org/2000/svg">
<path d="M8.62685 47.4317C6.92398 47.4317 5.35303 47.1199 3.91399 46.4963C2.49893 45.8488 1.33571 44.9374 0.424316 43.7622L3.66216 39.8767C5.02925 41.7235 6.58821 42.6469 8.33904 42.6469C10.7134 42.6469 11.9006 41.2558 11.9006 38.4737V26.4937H3.05056V21.8168H17.6928V38.1499C17.6928 41.2438 16.9253 43.5703 15.3903 45.1292C13.8553 46.6642 11.6008 47.4317 8.62685 47.4317ZM35.6454 47.4317C33.0311 47.4317 30.6687 46.8681 28.5581 45.7408C26.4715 44.6136 24.8286 43.0666 23.6294 41.0999C22.4542 39.1093 21.8666 36.8787 21.8666 34.4084C21.8666 31.938 22.4542 29.7195 23.6294 27.7528C24.8286 25.7622 26.4715 24.2032 28.5581 23.0759C30.6687 21.9487 33.0311 21.3851 35.6454 21.3851C38.2596 21.3851 40.6101 21.9487 42.6967 23.0759C44.7833 24.2032 46.4262 25.7622 47.6254 27.7528C48.8246 29.7195 49.4242 31.938 49.4242 34.4084C49.4242 36.8787 48.8246 39.1093 47.6254 41.0999C46.4262 43.0666 44.7833 44.6136 42.6967 45.7408C40.6101 46.8681 38.2596 47.4317 35.6454 47.4317ZM35.6454 42.467C37.1324 42.467 38.4755 42.1312 39.6747 41.4597C40.8739 40.7642 41.8093 39.8048 42.4808 38.5816C43.1764 37.3584 43.5241 35.9674 43.5241 34.4084C43.5241 32.8494 43.1764 31.4584 42.4808 30.2352C41.8093 29.012 40.8739 28.0646 39.6747 27.3931C38.4755 26.6975 37.1324 26.3498 35.6454 26.3498C34.1584 26.3498 32.8153 26.6975 31.6161 27.3931C30.4169 28.0646 29.4695 29.012 28.774 30.2352C28.1024 31.4584 27.7666 32.8494 27.7666 34.4084C27.7666 35.9674 28.1024 37.3584 28.774 38.5816C29.4695 39.8048 30.4169 40.7642 31.6161 41.4597C32.8153 42.1312 34.1584 42.467 35.6454 42.467ZM69.8496 47L64.9928 39.9847H64.705H59.6324V47H53.8043V21.8168H64.705C66.9355 21.8168 68.8662 22.1885 70.4972 22.932C72.1521 23.6755 73.4232 24.7308 74.3106 26.0979C75.198 27.465 75.6417 29.0839 75.6417 30.9547C75.6417 32.8254 75.186 34.4444 74.2746 35.8115C73.3872 37.1546 72.1161 38.1859 70.4612 38.9054L76.1094 47H69.8496ZM69.7417 30.9547C69.7417 29.5396 69.286 28.4604 68.3746 27.7168C67.4632 26.9494 66.1321 26.5656 64.3812 26.5656H59.6324V35.3438H64.3812C66.1321 35.3438 67.4632 34.96 68.3746 34.1925C69.286 33.425 69.7417 32.3458 69.7417 30.9547ZM103.356 21.8168V47H98.5711L86.0155 31.7102V47H80.2593V21.8168H85.0801L97.5998 37.1066V21.8168H103.356ZM125.899 41.6036H114.207L111.976 47H106.004L117.229 21.8168H122.985L134.246 47H128.13L125.899 41.6036ZM124.064 37.1785L120.071 27.537L116.078 37.1785H124.064ZM136.858 21.8168H148.299C151.033 21.8168 153.443 22.3444 155.53 23.3997C157.641 24.431 159.271 25.8941 160.423 27.7888C161.598 29.6835 162.186 31.8901 162.186 34.4084C162.186 36.9267 161.598 39.1332 160.423 41.028C159.271 42.9227 157.641 44.3977 155.53 45.453C153.443 46.4843 151.033 47 148.299 47H136.858V21.8168ZM148.011 42.2152C150.529 42.2152 152.532 41.5197 154.019 40.1286C155.53 38.7135 156.285 36.8068 156.285 34.4084C156.285 32.01 155.53 30.1153 154.019 28.7242C152.532 27.3091 150.529 26.6016 148.011 26.6016H142.687V42.2152H148.011ZM182.814 41.6036H171.122L168.892 47H162.92L174.144 21.8168H179.9L191.161 47H185.045L182.814 41.6036ZM180.98 37.1785L176.986 27.537L172.993 37.1785H180.98Z" fill="white"/>
<path d="M223.218 33.378C223.161 33.3071 223.093 33.2456 223.017 33.1961L221.905 32.4857L215.426 28.3314L215.088 28.1149L213.672 27.2051L212.209 26.2789C212.123 26.2154 212.033 26.1576 211.939 26.1061C210.402 25.0724 208.591 24.5214 206.739 24.5238C205.504 24.523 204.282 24.7652 203.141 25.2369C202 25.7085 200.964 26.4004 200.09 27.2727C199.217 28.145 198.524 29.1808 198.051 30.3209C197.578 31.4611 197.334 32.6832 197.334 33.9176C197.332 36.4102 198.321 38.8013 200.083 40.5649C201.844 42.3285 204.234 43.3201 206.727 43.3217C208.581 43.3221 210.395 42.7741 211.939 41.7466C212.019 41.6985 212.096 41.6463 212.171 41.5903L213.648 40.6431L215.063 39.7274L215.401 39.5109L221.881 35.3526L223.01 34.637C223.105 34.5761 223.186 34.4971 223.25 34.4046C223.315 34.3122 223.36 34.208 223.383 34.098C223.407 33.9881 223.409 33.8746 223.389 33.7639C223.369 33.6533 223.327 33.5477 223.266 33.4532C223.249 33.4264 223.23 33.4006 223.21 33.3759L223.218 33.378ZM206.758 38.1934C205.625 38.1939 204.539 37.7447 203.738 36.9446C202.937 36.1444 202.487 35.0589 202.486 33.9267C202.486 33.3659 202.596 32.8107 202.81 32.2925C203.024 31.7744 203.339 31.3035 203.735 30.9068C204.131 30.5101 204.602 30.1953 205.12 29.9805C205.638 29.7656 206.193 29.6549 206.754 29.6547C207.885 29.6542 208.971 30.1029 209.772 30.9024C210.573 31.7018 211.024 32.7865 211.026 33.9182C211.026 34.479 210.917 35.0344 210.703 35.5528C210.489 36.0713 210.175 36.5425 209.779 36.9396C209.383 37.3367 208.913 37.6519 208.395 37.8671C207.878 38.0824 207.322 38.1934 206.762 38.194L206.758 38.1934Z" fill="#A3CA44"/>
<path d="M229.248 34.4618C229.305 34.5312 229.372 34.5912 229.448 34.6397L230.56 35.3553L237.04 39.514L237.378 39.7306L238.793 40.6463L240.271 41.5942C240.352 41.6505 240.423 41.7048 240.503 41.7506C241.53 42.4359 242.682 42.9122 243.893 43.1524C245.104 43.3925 246.351 43.3916 247.561 43.15C248.772 42.9083 249.924 42.4306 250.95 41.744C251.976 41.0574 252.857 40.1755 253.542 39.1485C254.227 38.1215 254.704 36.9695 254.944 35.7583C255.184 34.5472 255.183 33.3006 254.941 32.0898C254.7 30.879 254.222 29.7277 253.535 28.7016C252.848 27.6755 251.967 26.7947 250.939 26.1094C249.394 25.0785 247.579 24.5283 245.721 24.5283C243.864 24.5283 242.048 25.0785 240.503 26.1094C240.415 26.1631 240.333 26.2173 240.233 26.2821L238.79 27.2083L237.375 28.1182L237.038 28.3348L230.557 32.4889L229.445 33.1994C229.369 33.2488 229.302 33.3101 229.245 33.3811C229.12 33.5336 229.052 33.7247 229.053 33.9219C229.053 34.119 229.122 34.3099 229.248 34.4618ZM241.44 33.9207C241.441 32.7884 241.892 31.7029 242.693 30.903C243.495 30.1031 244.581 29.6542 245.714 29.6553C246.846 29.6565 247.932 30.1075 248.731 30.9091C249.531 31.7106 249.98 32.797 249.979 33.9294C249.979 34.4901 249.868 35.0452 249.653 35.563C249.438 36.0809 249.122 36.5512 248.726 36.9473C248.329 37.3434 247.858 37.6574 247.339 37.8714C246.821 38.0855 246.266 38.1954 245.705 38.1948C244.574 38.1927 243.489 37.7415 242.69 36.9404C241.891 36.1393 241.443 35.0537 241.444 33.9222L241.44 33.9207Z" fill="#FCF6BF"/>
<path d="M226.777 30.9029C226.848 30.8471 226.91 30.7795 226.958 30.7032L227.67 29.5913L231.824 23.1117L232.042 22.7742L232.949 21.3587L233.876 19.9007C233.939 19.8145 233.996 19.7242 234.048 19.6305C235.082 18.0929 235.633 16.2815 235.631 14.4284C235.635 13.1942 235.396 11.9711 234.928 10.8292C234.459 9.68732 233.77 8.64884 232.9 7.77315C232.031 6.89745 230.997 6.20169 229.858 5.72554C228.719 5.24939 227.498 5.00225 226.264 4.99813C223.771 4.98979 221.377 5.97182 219.609 7.72843C217.84 9.48504 216.842 11.8722 216.833 14.3649C216.828 16.2382 217.381 18.0707 218.424 19.6273C218.467 19.7077 218.523 19.7784 218.577 19.8595L219.504 21.3475L220.419 22.7637L220.635 23.1013L224.795 29.5809L225.518 30.6994C225.579 30.794 225.658 30.8756 225.75 30.9396C225.843 31.0036 225.947 31.0488 226.057 31.0724C226.167 31.0961 226.281 31.098 226.391 31.0777C226.502 31.0575 226.608 31.0155 226.702 30.9544C226.729 30.9375 226.755 30.919 226.779 30.8989L226.777 30.9029ZM221.961 14.4434C221.961 13.3111 222.41 12.2249 223.21 11.4238C224.01 10.6226 225.096 10.1721 226.228 10.1714C226.789 10.1711 227.344 10.2812 227.863 10.4955C228.381 10.7097 228.852 11.024 229.248 11.4203C229.645 11.8165 229.96 12.287 230.175 12.805C230.39 13.3229 230.5 13.8781 230.5 14.4388C230.501 15.5704 230.052 16.656 229.253 17.457C228.453 18.258 227.369 18.7089 226.237 18.7108C225.105 18.7122 224.018 18.2639 223.217 17.4644C222.415 16.6649 221.963 15.5797 221.962 14.4474L221.961 14.4434Z" fill="#F58C3A"/>
<path d="M225.694 36.9369C225.624 36.9924 225.564 37.0587 225.515 37.1332L224.8 38.2614L220.641 44.7417L220.424 45.0799L219.503 46.487L218.556 47.9651C218.501 48.0456 218.444 48.1162 218.402 48.1967C217.019 50.2705 216.516 52.8088 217.004 55.2533C217.493 57.6977 218.932 59.848 221.006 61.2311C223.08 62.6143 225.618 63.1171 228.062 62.6288C230.507 62.1404 232.657 60.7009 234.04 58.6271C235.07 57.0829 235.62 55.2682 235.62 53.412C235.62 51.5557 235.07 49.741 234.04 48.1967C233.986 48.1084 233.932 48.0267 233.868 47.9266L232.946 46.4876L232.039 45.0721L231.821 44.7339L227.667 38.2543L226.951 37.1423C226.9 37.0668 226.838 37.0004 226.765 36.946C226.614 36.8217 226.425 36.7534 226.229 36.7525C226.034 36.7515 225.844 36.8179 225.691 36.9408L225.694 36.9369ZM226.234 49.1288C227.367 49.1299 228.452 49.5806 229.252 50.3818C230.052 51.183 230.502 52.2691 230.501 53.4015C230.5 54.5338 230.049 55.6195 229.248 56.4197C228.447 57.2198 227.361 57.669 226.228 57.6683C225.096 57.6675 224.01 57.2168 223.21 56.4155C222.41 55.6143 221.961 54.5279 221.962 53.3955C221.964 52.264 222.415 51.1797 223.216 50.3807C224.017 49.5816 225.103 49.1332 226.234 49.1341V49.1288Z" fill="#1CB5A7"/>
<path d="M218.963 46.2245L219.944 44.6927C218.087 43.6078 216.539 42.0631 215.451 40.2074L213.919 41.1932C215.15 43.2695 216.884 45.0018 218.961 46.2298L218.963 46.2245Z" fill="#1CB5A7"/>
<path d="M232.519 44.694L233.5 46.222C235.576 44.9957 237.308 43.265 238.537 41.1905L237.006 40.2042C235.92 42.0608 234.375 43.6069 232.519 44.694Z" fill="#FCF6BF"/>
<path d="M233.498 21.6202L232.517 23.1411C234.373 24.2261 235.918 25.771 237.002 27.6269L238.534 26.6523C237.306 24.5778 235.574 22.8469 233.498 21.6202Z" fill="#F58C3A"/>
<path d="M213.928 26.6517L215.451 27.6407C216.538 25.7788 218.087 24.2291 219.948 23.1411L218.962 21.621C216.888 22.8489 215.157 24.5789 213.928 26.6517Z" fill="#A3CA44"/>
<path d="M222.079 40.9669L222.641 40.0916C221.579 39.4712 220.695 38.5875 220.075 37.5256L219.199 38.0894C219.902 39.2756 220.892 40.2655 222.079 40.9669Z" fill="#1CB5A7"/>
<path d="M229.823 40.0779L230.388 40.9661C231.58 40.262 232.575 39.2674 233.278 38.075L232.403 37.5105C231.78 38.5753 230.891 39.4601 229.823 40.0779Z" fill="#FCF6BF"/>
<path d="M230.385 26.8897L229.822 27.7676C230.883 28.3869 231.766 29.2699 232.386 30.331L233.26 29.7692C232.559 28.5825 231.57 27.592 230.385 26.8897Z" fill="#F58C3A"/>
<path d="M219.201 29.7679L220.076 30.3291C220.697 29.2689 221.581 28.3864 222.642 27.7663L222.077 26.8885C220.893 27.5922 219.903 28.5823 219.201 29.7679Z" fill="#A3CA44"/>
<path d="M225.375 31.8668L225.105 31.424C224.508 31.6977 224.028 32.1772 223.755 32.7748L224.197 33.0449C224.422 32.5151 224.844 32.0933 225.374 31.8676L225.375 31.8668Z" fill="#A3CA44"/>
<path d="M228.286 33.066L228.732 32.7801C228.457 32.1832 227.978 31.704 227.381 31.4293L227.111 31.8715C227.643 32.102 228.064 32.5304 228.286 33.066Z" fill="#F58C3A"/>
<path d="M228.286 34.7809C228.058 35.3201 227.629 35.7494 227.09 35.9774L227.36 36.4194C227.958 36.1461 228.438 35.6666 228.711 35.0687L228.286 34.7809Z" fill="#FCF6BF"/>
<path d="M224.172 34.7816L223.729 35.0675C224.004 35.6644 224.483 36.1434 225.08 36.4182L225.351 35.9734C224.819 35.7433 224.396 35.3162 224.172 34.7816Z" fill="#1CB5A7"/>
</svg>
