<svg width="308" height="85" viewBox="0 0 308 85" fill="none" xmlns="http://www.w3.org/2000/svg">
<path d="M30.6741 22.5552C36.733 22.5552 41.6446 17.6435 41.6446 11.5847C41.6446 5.52589 36.733 0.614258 30.6741 0.614258C24.6153 0.614258 19.7036 5.52589 19.7036 11.5847C19.7036 17.6435 24.6153 22.5552 30.6741 22.5552Z" fill="#14293C"/>
<path fill-rule="evenodd" clip-rule="evenodd" d="M21.1315 47.0611C15.1875 44.3372 8.31669 44.7504 0.472656 49.6256C13.913 13.1516 47.8698 41.2195 58.4604 3.89062C72.3279 63.1132 21.9392 37.135 22.2715 84.9596C11.3335 72.7041 10.7934 60.0767 21.1315 47.0611Z" fill="#14293C"/>
<path d="M65.7824 70.933C63.7306 70.933 61.8227 70.5191 60.0588 69.6911C58.295 68.8632 56.8551 67.6753 55.7392 66.1274C55.3072 65.4794 55.0912 64.8495 55.0912 64.2375C55.0912 63.3376 55.4332 62.5817 56.1172 61.9697C56.8371 61.3578 57.539 61.0518 58.223 61.0518C58.7629 61.0518 59.2849 61.2138 59.7889 61.5377C60.3288 61.8617 60.8148 62.2397 61.2468 62.6717C61.9667 63.3196 62.6686 63.7876 63.3526 64.0756C64.0725 64.3275 64.8825 64.4535 65.7824 64.4535C66.8623 64.4535 67.8702 64.1835 68.8062 63.6436C69.7421 63.1036 70.498 62.3837 71.074 61.4838C71.65 60.5838 71.9379 59.6119 71.9379 58.568V35.8897C71.9379 34.9538 72.2799 34.1799 72.9639 33.5679C73.6478 32.9199 74.4397 32.596 75.3397 32.596C76.3476 32.596 77.1575 32.9199 77.7695 33.5679C78.3814 34.1799 78.6874 34.9538 78.6874 35.8897V58.568C78.6874 60.7638 78.1115 62.7977 76.9595 64.6695C75.8076 66.5414 74.2598 68.0532 72.3159 69.2052C70.3721 70.3571 68.1942 70.933 65.7824 70.933ZM121.547 51.4945C121.547 54.1943 121.097 56.7141 120.197 59.0539C119.297 61.3938 118.019 63.4636 116.363 65.2635C114.744 67.0273 112.8 68.4132 110.532 69.4211C108.3 70.4291 105.852 70.933 103.188 70.933C100.525 70.933 98.0768 70.4291 95.845 69.4211C93.6132 68.4132 91.6693 67.0273 90.0135 65.2635C88.3936 63.4636 87.1337 61.3938 86.2338 59.0539C85.3338 56.7141 84.8839 54.1943 84.8839 51.4945C84.8839 48.7947 85.3338 46.2749 86.2338 43.9351C87.1337 41.5953 88.3936 39.5434 90.0135 37.7796C91.6693 35.9797 93.6132 34.5758 95.845 33.5679C98.0768 32.56 100.525 32.056 103.188 32.056C105.852 32.056 108.3 32.56 110.532 33.5679C112.8 34.5758 114.744 35.9797 116.363 37.7796C118.019 39.5434 119.297 41.5953 120.197 43.9351C121.097 46.2749 121.547 48.7947 121.547 51.4945ZM114.528 51.4945C114.528 49.0827 114.042 46.9049 113.07 44.961C112.098 42.9812 110.766 41.4153 109.074 40.2634C107.382 39.1115 105.42 38.5355 103.188 38.5355C100.957 38.5355 98.9948 39.1115 97.3029 40.2634C95.611 41.4153 94.2791 42.9632 93.3072 44.907C92.3713 46.8509 91.9033 49.0467 91.9033 51.4945C91.9033 53.9063 92.3713 56.1022 93.3072 58.082C94.2791 60.0259 95.611 61.5737 97.3029 62.7257C98.9948 63.8776 100.957 64.4535 103.188 64.4535C105.42 64.4535 107.382 63.8776 109.074 62.7257C110.766 61.5737 112.098 60.0259 113.07 58.082C114.042 56.1022 114.528 53.9063 114.528 51.4945ZM131.633 70.3931C130.625 70.3931 129.725 70.0871 128.933 69.4751C128.141 68.8272 127.745 68.0352 127.745 67.0993V35.8897C127.745 34.9538 128.051 34.1799 128.663 33.5679C129.311 32.9199 130.103 32.596 131.039 32.596H146.59C148.462 32.596 150.207 33.0999 151.827 34.1079C153.483 35.0798 154.815 36.4477 155.823 38.2115C156.831 39.9394 157.335 41.9373 157.335 44.2051C157.335 45.573 157.047 46.9049 156.471 48.2008C155.931 49.4967 155.175 50.6666 154.203 51.7105C153.267 52.7544 152.205 53.5644 151.017 54.1403L151.071 52.8984C152.079 53.4384 152.907 54.0863 153.555 54.8423C154.239 55.5622 154.761 56.3541 155.121 57.2181C155.517 58.046 155.751 58.9459 155.823 59.9179C155.967 60.8178 156.057 61.6097 156.093 62.2937C156.165 62.9776 156.273 63.5536 156.417 64.0216C156.597 64.4895 156.921 64.8495 157.389 65.1015C158.181 65.5694 158.667 66.2534 158.847 67.1533C159.063 68.0172 158.865 68.7912 158.253 69.4751C157.857 69.9431 157.353 70.2491 156.741 70.3931C156.129 70.5011 155.517 70.5011 154.905 70.3931C154.293 70.2491 153.789 70.0691 153.393 69.8531C152.781 69.4931 152.169 68.9712 151.557 68.2872C150.945 67.5673 150.441 66.6134 150.045 65.4254C149.685 64.2375 149.505 62.7077 149.505 60.8358C149.505 60.2238 149.398 59.6659 149.182 59.1619C148.966 58.622 148.66 58.172 148.264 57.812C147.868 57.4161 147.364 57.1281 146.752 56.9481C146.14 56.7321 145.42 56.6241 144.592 56.6241H133.685L134.495 55.3822V67.0993C134.495 68.0352 134.243 68.8272 133.739 69.4751C133.235 70.0871 132.533 70.3931 131.633 70.3931ZM133.739 51.0626H146.32C146.968 51.0626 147.598 50.7746 148.21 50.1986C148.822 49.5867 149.326 48.7767 149.721 47.7688C150.117 46.7249 150.315 45.591 150.315 44.3671C150.315 42.7832 149.883 41.4693 149.02 40.4254C148.192 39.3455 147.292 38.8055 146.32 38.8055H133.847L134.495 37.0776V52.3585L133.739 51.0626ZM193.486 32.596C194.35 32.596 195.052 32.884 195.592 33.4599C196.132 34.0359 196.402 34.7558 196.402 35.6197V67.0993C196.402 68.0352 196.078 68.8272 195.43 69.4751C194.818 70.0871 194.044 70.3931 193.108 70.3931C192.64 70.3931 192.154 70.3211 191.651 70.1771C191.183 69.9971 190.823 69.7631 190.571 69.4751L169.35 42.5312L170.754 41.6673V67.3693C170.754 68.2332 170.466 68.9532 169.89 69.5291C169.35 70.1051 168.63 70.3931 167.73 70.3931C166.866 70.3931 166.164 70.1051 165.625 69.5291C165.085 68.9532 164.815 68.2332 164.815 67.3693V35.8897C164.815 34.9538 165.121 34.1799 165.733 33.5679C166.38 32.9199 167.172 32.596 168.108 32.596C168.612 32.596 169.134 32.704 169.674 32.92C170.214 33.0999 170.61 33.3879 170.862 33.7839L191.435 60.0259L190.517 60.6738V35.6197C190.517 34.7558 190.787 34.0359 191.327 33.4599C191.866 32.884 192.586 32.596 193.486 32.596ZM218.397 41.0733L206.734 68.5032C206.482 69.1872 206.086 69.7271 205.546 70.1231C205.042 70.4831 204.485 70.663 203.873 70.663C202.901 70.663 202.181 70.3931 201.713 69.8531C201.245 69.3131 201.011 68.6472 201.011 67.8553C201.011 67.5313 201.065 67.1893 201.173 66.8293L214.618 34.5398C214.906 33.8199 215.338 33.2619 215.914 32.866C216.526 32.47 217.174 32.308 217.857 32.38C218.505 32.38 219.099 32.578 219.639 32.9739C220.215 33.3339 220.629 33.8559 220.881 34.5398L234.164 66.1814C234.344 66.6494 234.434 67.0813 234.434 67.4773C234.434 68.4492 234.11 69.2232 233.462 69.7991C232.85 70.3751 232.166 70.663 231.41 70.663C230.762 70.663 230.169 70.4651 229.629 70.0691C229.125 69.6731 228.729 69.1332 228.441 68.4492L216.832 41.3973L218.397 41.0733ZM208.408 61.9157L211.378 55.7062H225.957L226.983 61.9157H208.408ZM255.205 32.596C257.797 32.596 260.101 33.0819 262.116 34.0539C264.132 35.0258 265.824 36.3937 267.192 38.1575C268.596 39.8854 269.64 41.9013 270.324 44.2051C271.044 46.4729 271.404 48.9027 271.404 51.4945C271.404 54.9863 270.774 58.172 269.514 61.0518C268.254 63.8956 266.418 66.1634 264.006 67.8553C261.63 69.5471 258.697 70.3931 255.205 70.3931H242.3C241.364 70.3931 240.572 70.0871 239.924 69.4751C239.312 68.8272 239.006 68.0352 239.006 67.0993V35.8897C239.006 34.9538 239.312 34.1799 239.924 33.5679C240.572 32.9199 241.364 32.596 242.3 32.596H255.205ZM254.665 64.1835C256.933 64.1835 258.787 63.6076 260.226 62.4557C261.666 61.2678 262.71 59.7199 263.358 57.812C264.042 55.8682 264.384 53.7623 264.384 51.4945C264.384 49.8027 264.186 48.2008 263.79 46.6889C263.43 45.141 262.854 43.7911 262.062 42.6392C261.27 41.4513 260.262 40.5154 259.039 39.8314C257.815 39.1475 256.357 38.8055 254.665 38.8055H245.216L245.756 38.3195V64.7775L245.432 64.1835H254.665ZM291.218 41.0733L279.555 68.5032C279.303 69.1872 278.907 69.7271 278.367 70.1231C277.863 70.4831 277.305 70.663 276.693 70.663C275.721 70.663 275.001 70.3931 274.533 69.8531C274.065 69.3131 273.831 68.6472 273.831 67.8553C273.831 67.5313 273.885 67.1893 273.993 66.8293L287.438 34.5398C287.726 33.8199 288.158 33.2619 288.734 32.866C289.346 32.47 289.994 32.308 290.678 32.38C291.326 32.38 291.92 32.578 292.46 32.9739C293.036 33.3339 293.45 33.8559 293.702 34.5398L306.985 66.1814C307.165 66.6494 307.255 67.0813 307.255 67.4773C307.255 68.4492 306.931 69.2232 306.283 69.7991C305.671 70.3751 304.987 70.663 304.231 70.663C303.583 70.663 302.989 70.4651 302.449 70.0691C301.945 69.6731 301.549 69.1332 301.261 68.4492L289.652 41.3973L291.218 41.0733ZM281.229 61.9157L284.199 55.7062H298.777L299.803 61.9157H281.229Z" fill="#14293C"/>
</svg>
