<svg width="308" height="85" viewBox="0 0 308 85" fill="none" xmlns="http://www.w3.org/2000/svg">
<path d="M30.3996 22.2104C36.4585 22.2104 41.3701 17.2988 41.3701 11.24C41.3701 5.18117 36.4585 0.269531 30.3996 0.269531C24.3408 0.269531 19.4292 5.18117 19.4292 11.24C19.4292 17.2988 24.3408 22.2104 30.3996 22.2104Z" fill="#A8CF45"/>
<path fill-rule="evenodd" clip-rule="evenodd" d="M20.8571 46.7164C14.9131 43.9925 8.04227 44.4056 0.198242 49.2808C13.6386 12.8069 47.5954 40.8748 58.186 3.5459C72.0535 62.7685 21.6648 36.7903 21.9971 84.6149C11.0591 72.3594 10.519 59.732 20.8571 46.7164V46.7164Z" fill="#A8CF45"/>
<path d="M65.508 70.5883C63.4562 70.5883 61.5483 70.1743 59.7844 69.3464C58.0206 68.5185 56.5807 67.3305 55.4648 65.7827C55.0328 65.1347 54.8168 64.5048 54.8168 63.8928C54.8168 62.9929 55.1588 62.2369 55.8427 61.625C56.5627 61.013 57.2646 60.7071 57.9486 60.7071C58.4885 60.7071 59.0105 60.869 59.5145 61.193C60.0544 61.517 60.5404 61.895 60.9723 62.3269C61.6923 62.9749 62.3942 63.4428 63.0782 63.7308C63.7981 63.9828 64.6081 64.1088 65.508 64.1088C66.5879 64.1088 67.5958 63.8388 68.5318 63.2989C69.4677 62.7589 70.2236 62.039 70.7996 61.139C71.3755 60.2391 71.6635 59.2672 71.6635 58.2232V35.545C71.6635 34.6091 72.0055 33.8351 72.6894 33.2232C73.3734 32.5752 74.1653 32.2512 75.0653 32.2512C76.0732 32.2512 76.8831 32.5752 77.4951 33.2232C78.107 33.8351 78.413 34.6091 78.413 35.545V58.2232C78.413 60.4191 77.837 62.4529 76.6851 64.3248C75.5332 66.1966 73.9853 67.7085 72.0415 68.8604C70.0976 70.0123 67.9198 70.5883 65.508 70.5883ZM121.273 51.1498C121.273 53.8496 120.823 56.3694 119.923 58.7092C119.023 61.049 117.745 63.1189 116.089 64.9187C114.469 66.6826 112.525 68.0685 110.257 69.0764C108.026 70.0843 105.578 70.5883 102.914 70.5883C100.25 70.5883 97.8024 70.0843 95.5706 69.0764C93.3388 68.0685 91.3949 66.6826 89.739 64.9187C88.1192 63.1189 86.8593 61.049 85.9593 58.7092C85.0594 56.3694 84.6094 53.8496 84.6094 51.1498C84.6094 48.45 85.0594 45.9302 85.9593 43.5904C86.8593 41.2506 88.1192 39.1987 89.739 37.4348C91.3949 35.635 93.3388 34.2311 95.5706 33.2232C97.8024 32.2153 100.25 31.7113 102.914 31.7113C105.578 31.7113 108.026 32.2153 110.257 33.2232C112.525 34.2311 114.469 35.635 116.089 37.4348C117.745 39.1987 119.023 41.2506 119.923 43.5904C120.823 45.9302 121.273 48.45 121.273 51.1498ZM114.253 51.1498C114.253 48.738 113.767 46.5601 112.795 44.6163C111.823 42.6364 110.491 41.0706 108.8 39.9187C107.108 38.7667 105.146 38.1908 102.914 38.1908C100.682 38.1908 98.7204 38.7667 97.0285 39.9187C95.3366 41.0706 94.0047 42.6185 93.0328 44.5623C92.0969 46.5062 91.6289 48.702 91.6289 51.1498C91.6289 53.5616 92.0969 55.7574 93.0328 57.7373C94.0047 59.6811 95.3366 61.229 97.0285 62.3809C98.7204 63.5328 100.682 64.1088 102.914 64.1088C105.146 64.1088 107.108 63.5328 108.8 62.3809C110.491 61.229 111.823 59.6811 112.795 57.7373C113.767 55.7574 114.253 53.5616 114.253 51.1498ZM131.358 70.0483C130.351 70.0483 129.451 69.7424 128.659 69.1304C127.867 68.4825 127.471 67.6905 127.471 66.7546V35.545C127.471 34.6091 127.777 33.8351 128.389 33.2232C129.037 32.5752 129.829 32.2512 130.765 32.2512H146.315C148.187 32.2512 149.933 32.7552 151.553 33.7631C153.209 34.7351 154.541 36.103 155.549 37.8668C156.557 39.5947 157.06 41.5925 157.06 43.8604C157.06 45.2282 156.772 46.5601 156.197 47.856C155.657 49.1519 154.901 50.3219 153.929 51.3658C152.993 52.4097 151.931 53.2196 150.743 53.7956L150.797 52.5537C151.805 53.0936 152.633 53.7416 153.281 54.4975C153.965 55.2175 154.487 56.0094 154.847 56.8734C155.243 57.7013 155.477 58.6012 155.549 59.5731C155.693 60.4731 155.783 61.265 155.819 61.949C155.891 62.6329 155.999 63.2089 156.143 63.6768C156.323 64.1448 156.647 64.5048 157.114 64.7567C157.906 65.2247 158.392 65.9087 158.572 66.8086C158.788 67.6725 158.59 68.4465 157.978 69.1304C157.582 69.5984 157.078 69.9044 156.467 70.0483C155.855 70.1563 155.243 70.1563 154.631 70.0483C154.019 69.9044 153.515 69.7244 153.119 69.5084C152.507 69.1484 151.895 68.6264 151.283 67.9425C150.671 67.2226 150.167 66.2686 149.771 65.0807C149.411 63.8928 149.231 62.3629 149.231 60.4911C149.231 59.8791 149.123 59.3212 148.907 58.8172C148.691 58.2772 148.385 57.8273 147.989 57.4673C147.593 57.0713 147.089 56.7834 146.477 56.6034C145.865 56.3874 145.145 56.2794 144.317 56.2794H133.41L134.22 55.0375V66.7546C134.22 67.6905 133.968 68.4825 133.464 69.1304C132.96 69.7424 132.258 70.0483 131.358 70.0483ZM133.464 50.7178H146.045C146.693 50.7178 147.323 50.4298 147.935 49.8539C148.547 49.2419 149.051 48.432 149.447 47.4241C149.843 46.3802 150.041 45.2462 150.041 44.0223C150.041 42.4385 149.609 41.1246 148.745 40.0806C147.917 39.0007 147.017 38.4608 146.045 38.4608H133.572L134.22 36.7329V52.0137L133.464 50.7178ZM193.212 32.2512C194.076 32.2512 194.778 32.5392 195.318 33.1152C195.858 33.6911 196.128 34.4111 196.128 35.275V66.7546C196.128 67.6905 195.804 68.4825 195.156 69.1304C194.544 69.7424 193.77 70.0483 192.834 70.0483C192.366 70.0483 191.88 69.9763 191.376 69.8324C190.908 69.6524 190.548 69.4184 190.296 69.1304L169.076 42.1865L170.48 41.3226V67.0246C170.48 67.8885 170.192 68.6085 169.616 69.1844C169.076 69.7604 168.356 70.0483 167.456 70.0483C166.592 70.0483 165.89 69.7604 165.35 69.1844C164.81 68.6085 164.54 67.8885 164.54 67.0246V35.545C164.54 34.6091 164.846 33.8351 165.458 33.2232C166.106 32.5752 166.898 32.2512 167.834 32.2512C168.338 32.2512 168.86 32.3592 169.4 32.5752C169.94 32.7552 170.336 33.0432 170.588 33.4392L191.16 59.6811L190.242 60.3291V35.275C190.242 34.4111 190.512 33.6911 191.052 33.1152C191.592 32.5392 192.312 32.2512 193.212 32.2512ZM218.123 40.7286L206.46 68.1585C206.208 68.8424 205.812 69.3824 205.272 69.7784C204.768 70.1383 204.21 70.3183 203.598 70.3183C202.626 70.3183 201.906 70.0483 201.438 69.5084C200.97 68.9684 200.736 68.3025 200.736 67.5105C200.736 67.1866 200.79 66.8446 200.898 66.4846L214.343 34.1951C214.631 33.4752 215.063 32.9172 215.639 32.5212C216.251 32.1253 216.899 31.9633 217.583 32.0353C218.231 32.0353 218.825 32.2332 219.365 32.6292C219.941 32.9892 220.355 33.5112 220.607 34.1951L233.89 65.8367C234.07 66.3046 234.16 66.7366 234.16 67.1326C234.16 68.1045 233.836 68.8784 233.188 69.4544C232.576 70.0303 231.892 70.3183 231.136 70.3183C230.488 70.3183 229.894 70.1203 229.354 69.7244C228.85 69.3284 228.454 68.7884 228.166 68.1045L216.557 41.0526L218.123 40.7286ZM208.134 61.571L211.104 55.3615H225.682L226.708 61.571H208.134ZM254.93 32.2512C257.522 32.2512 259.826 32.7372 261.842 33.7091C263.858 34.6811 265.55 36.049 266.918 37.8128C268.321 39.5407 269.365 41.5565 270.049 43.8604C270.769 46.1282 271.129 48.558 271.129 51.1498C271.129 54.6415 270.499 57.8273 269.239 60.7071C267.979 63.5508 266.144 65.8187 263.732 67.5105C261.356 69.2024 258.422 70.0483 254.93 70.0483H242.025C241.09 70.0483 240.298 69.7424 239.65 69.1304C239.038 68.4825 238.732 67.6905 238.732 66.7546V35.545C238.732 34.6091 239.038 33.8351 239.65 33.2232C240.298 32.5752 241.09 32.2512 242.025 32.2512H254.93ZM254.391 63.8388C256.658 63.8388 258.512 63.2629 259.952 62.111C261.392 60.923 262.436 59.3752 263.084 57.4673C263.768 55.5235 264.11 53.4176 264.11 51.1498C264.11 49.4579 263.912 47.856 263.516 46.3442C263.156 44.7963 262.58 43.4464 261.788 42.2945C260.996 41.1066 259.988 40.1706 258.764 39.4867C257.54 38.8027 256.082 38.4608 254.391 38.4608H244.941L245.481 37.9748V64.4328L245.157 63.8388H254.391ZM290.944 40.7286L279.28 68.1585C279.029 68.8424 278.633 69.3824 278.093 69.7784C277.589 70.1383 277.031 70.3183 276.419 70.3183C275.447 70.3183 274.727 70.0483 274.259 69.5084C273.791 68.9684 273.557 68.3025 273.557 67.5105C273.557 67.1866 273.611 66.8446 273.719 66.4846L287.164 34.1951C287.452 33.4752 287.884 32.9172 288.46 32.5212C289.072 32.1253 289.72 31.9633 290.404 32.0353C291.052 32.0353 291.646 32.2332 292.185 32.6292C292.761 32.9892 293.175 33.5112 293.427 34.1951L306.71 65.8367C306.89 66.3046 306.98 66.7366 306.98 67.1326C306.98 68.1045 306.656 68.8784 306.008 69.4544C305.396 70.0303 304.713 70.3183 303.957 70.3183C303.309 70.3183 302.715 70.1203 302.175 69.7244C301.671 69.3284 301.275 68.7884 300.987 68.1045L289.378 41.0526L290.944 40.7286ZM280.954 61.571L283.924 55.3615H298.503L299.529 61.571H280.954Z" fill="#FEFEFE"/>
</svg>
