<svg width="309" height="85" viewBox="0 0 309 85" fill="none" xmlns="http://www.w3.org/2000/svg">
<path d="M30.9796 21.9409C37.0384 21.9409 41.95 17.0293 41.95 10.9705C41.95 4.91164 37.0384 0 30.9796 0C24.9207 0 20.009 4.91164 20.009 10.9705C20.009 17.0293 24.9207 21.9409 30.9796 21.9409Z" fill="#FEFEFE"/>
<path fill-rule="evenodd" clip-rule="evenodd" d="M21.437 46.4469C15.4929 43.723 8.62211 44.1361 0.778076 49.0113C14.2185 12.5374 48.1752 40.6052 58.7658 3.27637C72.6333 62.4989 22.2446 36.5207 22.5769 84.3454C11.6389 72.0899 11.0988 59.4625 21.437 46.4469V46.4469Z" fill="#FEFEFE"/>
<path d="M66.0878 70.3188C64.036 70.3188 62.1281 69.9048 60.3643 69.0769C58.6004 68.2489 57.1605 67.061 56.0446 65.5131C55.6126 64.8652 55.3967 64.2352 55.3967 63.6233C55.3967 62.7234 55.7386 61.9674 56.4226 61.3555C57.1425 60.7435 57.8445 60.4375 58.5284 60.4375C59.0684 60.4375 59.5903 60.5995 60.0943 60.9235C60.6342 61.2475 61.1202 61.6254 61.5522 62.0574C62.2721 62.7054 62.9741 63.1733 63.658 63.4613C64.378 63.7133 65.1879 63.8393 66.0878 63.8393C67.1677 63.8393 68.1757 63.5693 69.1116 63.0293C70.0475 62.4894 70.8035 61.7694 71.3794 60.8695C71.9554 59.9696 72.2434 58.9976 72.2434 57.9537V35.2755C72.2434 34.3395 72.5853 33.5656 73.2693 32.9536C73.9532 32.3057 74.7452 31.9817 75.6451 31.9817C76.653 31.9817 77.463 32.3057 78.0749 32.9536C78.6869 33.5656 78.9928 34.3395 78.9928 35.2755V57.9537C78.9928 60.1495 78.4169 62.1834 77.265 64.0552C76.1131 65.9271 74.5652 67.439 72.6213 68.5909C70.6775 69.7428 68.4996 70.3188 66.0878 70.3188ZM121.852 50.8803C121.852 53.5801 121.402 56.0999 120.503 58.4397C119.603 60.7795 118.325 62.8493 116.669 64.6492C115.049 66.4131 113.105 67.799 110.837 68.8069C108.605 69.8148 106.158 70.3188 103.494 70.3188C100.83 70.3188 98.3823 69.8148 96.1504 68.8069C93.9186 67.799 91.9748 66.4131 90.3189 64.6492C88.699 62.8493 87.4391 60.7795 86.5392 58.4397C85.6392 56.0999 85.1893 53.5801 85.1893 50.8803C85.1893 48.1805 85.6392 45.6607 86.5392 43.3208C87.4391 40.981 88.699 38.9292 90.3189 37.1653C91.9748 35.3655 93.9186 33.9616 96.1504 32.9536C98.3823 31.9457 100.83 31.4418 103.494 31.4418C106.158 31.4418 108.605 31.9457 110.837 32.9536C113.105 33.9616 115.049 35.3655 116.669 37.1653C118.325 38.9292 119.603 40.981 120.503 43.3208C121.402 45.6607 121.852 48.1805 121.852 50.8803ZM114.833 50.8803C114.833 48.4684 114.347 46.2906 113.375 44.3468C112.403 42.3669 111.071 40.801 109.379 39.6491C107.688 38.4972 105.726 37.9213 103.494 37.9213C101.262 37.9213 99.3002 38.4972 97.6083 39.6491C95.9165 40.801 94.5846 42.3489 93.6126 44.2928C92.6767 46.2366 92.2087 48.4325 92.2087 50.8803C92.2087 53.2921 92.6767 55.4879 93.6126 57.4678C94.5846 59.4116 95.9165 60.9595 97.6083 62.1114C99.3002 63.2633 101.262 63.8393 103.494 63.8393C105.726 63.8393 107.688 63.2633 109.379 62.1114C111.071 60.9595 112.403 59.4116 113.375 57.4678C114.347 55.4879 114.833 53.2921 114.833 50.8803ZM131.938 69.7788C130.93 69.7788 130.03 69.4728 129.238 68.8609C128.447 68.2129 128.051 67.421 128.051 66.4851V35.2755C128.051 34.3395 128.357 33.5656 128.969 32.9536C129.616 32.3057 130.408 31.9817 131.344 31.9817H146.895C148.767 31.9817 150.513 32.4857 152.133 33.4936C153.789 34.4655 155.121 35.8334 156.128 37.5973C157.136 39.3252 157.64 41.323 157.64 43.5908C157.64 44.9587 157.352 46.2906 156.776 47.5865C156.236 48.8824 155.48 50.0523 154.509 51.0962C153.573 52.1402 152.511 52.9501 151.323 53.5261L151.377 52.2842C152.385 52.8241 153.213 53.4721 153.861 54.228C154.545 54.948 155.067 55.7399 155.426 56.6038C155.822 57.4318 156.056 58.3317 156.128 59.3036C156.272 60.2035 156.362 60.9955 156.398 61.6794C156.47 62.3634 156.578 62.9393 156.722 63.4073C156.902 63.8753 157.226 64.2352 157.694 64.4872C158.486 64.9552 158.972 65.6391 159.152 66.5391C159.368 67.403 159.17 68.1769 158.558 68.8609C158.162 69.3288 157.658 69.6348 157.046 69.7788C156.434 69.8868 155.822 69.8868 155.21 69.7788C154.599 69.6348 154.095 69.4548 153.699 69.2389C153.087 68.8789 152.475 68.3569 151.863 67.673C151.251 66.953 150.747 65.9991 150.351 64.8112C149.991 63.6233 149.811 62.0934 149.811 60.2215C149.811 59.6096 149.703 59.0516 149.487 58.5477C149.271 58.0077 148.965 57.5577 148.569 57.1978C148.173 56.8018 147.669 56.5138 147.057 56.3338C146.445 56.1179 145.725 56.0099 144.897 56.0099H133.99L134.8 54.768V66.4851C134.8 67.421 134.548 68.2129 134.044 68.8609C133.54 69.4728 132.838 69.7788 131.938 69.7788ZM134.044 50.4483H146.625C147.273 50.4483 147.903 50.1603 148.515 49.5844C149.127 48.9724 149.631 48.1625 150.027 47.1545C150.423 46.1106 150.621 44.9767 150.621 43.7528C150.621 42.1689 150.189 40.855 149.325 39.8111C148.497 38.7312 147.597 38.1912 146.625 38.1912H134.152L134.8 36.4634V51.7442L134.044 50.4483ZM193.792 31.9817C194.656 31.9817 195.358 32.2697 195.898 32.8457C196.438 33.4216 196.708 34.1416 196.708 35.0055V66.4851C196.708 67.421 196.384 68.2129 195.736 68.8609C195.124 69.4728 194.35 69.7788 193.414 69.7788C192.946 69.7788 192.46 69.7068 191.956 69.5628C191.488 69.3828 191.128 69.1489 190.876 68.8609L169.656 41.917L171.06 41.053V66.755C171.06 67.619 170.772 68.3389 170.196 68.9149C169.656 69.4908 168.936 69.7788 168.036 69.7788C167.172 69.7788 166.47 69.4908 165.93 68.9149C165.39 68.3389 165.12 67.619 165.12 66.755V35.2755C165.12 34.3395 165.426 33.5656 166.038 32.9536C166.686 32.3057 167.478 31.9817 168.414 31.9817C168.918 31.9817 169.44 32.0897 169.98 32.3057C170.52 32.4857 170.916 32.7737 171.168 33.1696L191.74 59.4116L190.822 60.0596V35.0055C190.822 34.1416 191.092 33.4216 191.632 32.8457C192.172 32.2697 192.892 31.9817 193.792 31.9817ZM218.703 40.4591L207.04 67.889C206.788 68.5729 206.392 69.1129 205.852 69.5088C205.348 69.8688 204.79 70.0488 204.178 70.0488C203.206 70.0488 202.486 69.7788 202.018 69.2389C201.55 68.6989 201.316 68.0329 201.316 67.241C201.316 66.917 201.37 66.5751 201.478 66.2151L214.923 33.9256C215.211 33.2056 215.643 32.6477 216.219 32.2517C216.831 31.8557 217.479 31.6937 218.163 31.7657C218.811 31.7657 219.405 31.9637 219.945 32.3597C220.521 32.7197 220.935 33.2416 221.187 33.9256L234.47 65.5671C234.65 66.0351 234.74 66.4671 234.74 66.863C234.74 67.835 234.416 68.6089 233.768 69.1849C233.156 69.7608 232.472 70.0488 231.716 70.0488C231.068 70.0488 230.474 69.8508 229.934 69.4548C229.43 69.0589 229.034 68.5189 228.746 67.835L217.137 40.783L218.703 40.4591ZM208.714 61.3015L211.683 55.0919H226.262L227.288 61.3015H208.714ZM255.51 31.9817C258.102 31.9817 260.406 32.4677 262.422 33.4396C264.438 34.4115 266.129 35.7794 267.497 37.5433C268.901 39.2712 269.945 41.287 270.629 43.5908C271.349 45.8586 271.709 48.2885 271.709 50.8803C271.709 54.372 271.079 57.5577 269.819 60.4375C268.559 63.2813 266.723 65.5491 264.312 67.241C261.936 68.9329 259.002 69.7788 255.51 69.7788H242.605C241.669 69.7788 240.877 69.4728 240.229 68.8609C239.618 68.2129 239.312 67.421 239.312 66.4851V35.2755C239.312 34.3395 239.618 33.5656 240.229 32.9536C240.877 32.3057 241.669 31.9817 242.605 31.9817H255.51ZM254.97 63.5693C257.238 63.5693 259.092 62.9933 260.532 61.8414C261.972 60.6535 263.016 59.1056 263.664 57.1978C264.348 55.2539 264.69 53.1481 264.69 50.8803C264.69 49.1884 264.492 47.5865 264.096 46.0746C263.736 44.5268 263.16 43.1769 262.368 42.0249C261.576 40.837 260.568 39.9011 259.344 39.2172C258.12 38.5332 256.662 38.1912 254.97 38.1912H245.521L246.061 37.7053V64.1632L245.737 63.5693H254.97ZM291.523 40.4591L279.86 67.889C279.608 68.5729 279.212 69.1129 278.672 69.5088C278.168 69.8688 277.61 70.0488 276.999 70.0488C276.027 70.0488 275.307 69.7788 274.839 69.2389C274.371 68.6989 274.137 68.0329 274.137 67.241C274.137 66.917 274.191 66.5751 274.299 66.2151L287.744 33.9256C288.032 33.2056 288.464 32.6477 289.04 32.2517C289.652 31.8557 290.3 31.6937 290.983 31.7657C291.631 31.7657 292.225 31.9637 292.765 32.3597C293.341 32.7197 293.755 33.2416 294.007 33.9256L307.29 65.5671C307.47 66.0351 307.56 66.4671 307.56 66.863C307.56 67.835 307.236 68.6089 306.588 69.1849C305.976 69.7608 305.292 70.0488 304.536 70.0488C303.888 70.0488 303.295 69.8508 302.755 69.4548C302.251 69.0589 301.855 68.5189 301.567 67.835L289.958 40.783L291.523 40.4591ZM281.534 61.3015L284.504 55.0919H299.083L300.109 61.3015H281.534Z" fill="#FEFEFE"/>
</svg>
