<svg width="308" height="85" viewBox="0 0 308 85" fill="none" xmlns="http://www.w3.org/2000/svg">
<path d="M30.4005 22.5547C36.4593 22.5547 41.3709 17.6431 41.3709 11.5843C41.3709 5.52544 36.4593 0.61377 30.4005 0.61377C24.3417 0.61377 19.4301 5.52544 19.4301 11.5843C19.4301 17.6431 24.3417 22.5547 30.4005 22.5547Z" fill="#A8CF45"/>
<path fill-rule="evenodd" clip-rule="evenodd" d="M20.858 47.0606C14.9139 44.3367 8.04313 44.7499 0.199097 49.6251C13.6395 13.1511 47.5963 41.219 58.1869 3.89014C72.0544 63.1127 21.6657 37.1345 21.9979 84.9591C11.06 72.7036 10.5199 60.0762 20.858 47.0606V47.0606Z" fill="#A8CF45"/>
<path d="M65.5088 70.9325C63.457 70.9325 61.5492 70.5186 59.7853 69.6906C58.0214 68.8627 56.5815 67.6748 55.4656 66.1269C55.0337 65.479 54.8177 64.849 54.8177 64.2371C54.8177 63.3371 55.1596 62.5812 55.8436 61.9692C56.5635 61.3573 57.2655 61.0513 57.9494 61.0513C58.4894 61.0513 59.0113 61.2133 59.5153 61.5373C60.0553 61.8612 60.5412 62.2392 60.9732 62.6712C61.6931 63.3191 62.3951 63.7871 63.079 64.0751C63.799 64.327 64.6089 64.453 65.5088 64.453C66.5888 64.453 67.5967 64.1831 68.5326 63.6431C69.4685 63.1031 70.2245 62.3832 70.8004 61.4833C71.3764 60.5833 71.6644 59.6114 71.6644 58.5675V35.8892C71.6644 34.9533 72.0063 34.1794 72.6903 33.5674C73.3742 32.9195 74.1662 32.5955 75.0661 32.5955C76.074 32.5955 76.884 32.9195 77.4959 33.5674C78.1079 34.1794 78.4139 34.9533 78.4139 35.8892V58.5675C78.4139 60.7633 77.8379 62.7972 76.686 64.669C75.5341 66.5409 73.9862 68.0528 72.0423 69.2047C70.0985 70.3566 67.9207 70.9325 65.5088 70.9325ZM121.273 51.494C121.273 54.1938 120.824 56.7136 119.924 59.0535C119.024 61.3933 117.746 63.4631 116.09 65.263C114.47 67.0268 112.526 68.4127 110.258 69.4207C108.026 70.4286 105.579 70.9325 102.915 70.9325C100.251 70.9325 97.8033 70.4286 95.5715 69.4207C93.3396 68.4127 91.3958 67.0268 89.7399 65.263C88.12 63.4631 86.8601 61.3933 85.9602 59.0535C85.0603 56.7136 84.6103 54.1938 84.6103 51.494C84.6103 48.7942 85.0603 46.2744 85.9602 43.9346C86.8601 41.5948 88.12 39.543 89.7399 37.7791C91.3958 35.9792 93.3396 34.5753 95.5715 33.5674C97.8033 32.5595 100.251 32.0555 102.915 32.0555C105.579 32.0555 108.026 32.5595 110.258 33.5674C112.526 34.5753 114.47 35.9792 116.09 37.7791C117.746 39.543 119.024 41.5948 119.924 43.9346C120.824 46.2744 121.273 48.7942 121.273 51.494ZM114.254 51.494C114.254 49.0822 113.768 46.9044 112.796 44.9605C111.824 42.9807 110.492 41.4148 108.8 40.2629C107.109 39.111 105.147 38.535 102.915 38.535C100.683 38.535 98.7212 39.111 97.0293 40.2629C95.3375 41.4148 94.0056 42.9627 93.0336 44.9065C92.0977 46.8504 91.6298 49.0462 91.6298 51.494C91.6298 53.9058 92.0977 56.1017 93.0336 58.0815C94.0056 60.0254 95.3375 61.5733 97.0293 62.7252C98.7212 63.8771 100.683 64.453 102.915 64.453C105.147 64.453 107.109 63.8771 108.8 62.7252C110.492 61.5733 111.824 60.0254 112.796 58.0815C113.768 56.1017 114.254 53.9058 114.254 51.494ZM131.359 70.3926C130.351 70.3926 129.451 70.0866 128.66 69.4746C127.868 68.8267 127.472 68.0348 127.472 67.0988V35.8892C127.472 34.9533 127.778 34.1794 128.39 33.5674C129.037 32.9195 129.829 32.5955 130.765 32.5955H146.316C148.188 32.5955 149.934 33.0994 151.554 34.1074C153.21 35.0793 154.542 36.4472 155.549 38.2111C156.557 39.9389 157.061 41.9368 157.061 44.2046C157.061 45.5725 156.773 46.9044 156.197 48.2003C155.657 49.4962 154.901 50.6661 153.93 51.71C152.994 52.7539 151.932 53.5639 150.744 54.1398L150.798 52.8979C151.806 53.4379 152.634 54.0858 153.282 54.8418C153.966 55.5617 154.488 56.3537 154.848 57.2176C155.243 58.0455 155.477 58.9455 155.549 59.9174C155.693 60.8173 155.783 61.6093 155.819 62.2932C155.891 62.9771 155.999 63.5531 156.143 64.0211C156.323 64.489 156.647 64.849 157.115 65.101C157.907 65.5689 158.393 66.2529 158.573 67.1528C158.789 68.0168 158.591 68.7907 157.979 69.4746C157.583 69.9426 157.079 70.2486 156.467 70.3926C155.855 70.5006 155.243 70.5006 154.632 70.3926C154.02 70.2486 153.516 70.0686 153.12 69.8526C152.508 69.4926 151.896 68.9707 151.284 68.2867C150.672 67.5668 150.168 66.6129 149.772 65.425C149.412 64.2371 149.232 62.7072 149.232 60.8353C149.232 60.2234 149.124 59.6654 148.908 59.1614C148.692 58.6215 148.386 58.1715 147.99 57.8115C147.594 57.4156 147.09 57.1276 146.478 56.9476C145.866 56.7316 145.146 56.6236 144.318 56.6236H133.411L134.221 55.3817V67.0988C134.221 68.0348 133.969 68.8267 133.465 69.4746C132.961 70.0866 132.259 70.3926 131.359 70.3926ZM133.465 51.0621H146.046C146.694 51.0621 147.324 50.7741 147.936 50.1981C148.548 49.5862 149.052 48.7762 149.448 47.7683C149.844 46.7244 150.042 45.5905 150.042 44.3666C150.042 42.7827 149.61 41.4688 148.746 40.4249C147.918 39.345 147.018 38.805 146.046 38.805H133.573L134.221 37.0771V52.358L133.465 51.0621ZM193.213 32.5955C194.077 32.5955 194.779 32.8835 195.319 33.4594C195.859 34.0354 196.129 34.7553 196.129 35.6193V67.0988C196.129 68.0348 195.805 68.8267 195.157 69.4746C194.545 70.0866 193.771 70.3926 192.835 70.3926C192.367 70.3926 191.881 70.3206 191.377 70.1766C190.909 69.9966 190.549 69.7626 190.297 69.4746L169.077 42.5307L170.481 41.6668V67.3688C170.481 68.2327 170.193 68.9527 169.617 69.5286C169.077 70.1046 168.357 70.3926 167.457 70.3926C166.593 70.3926 165.891 70.1046 165.351 69.5286C164.811 68.9527 164.541 68.2327 164.541 67.3688V35.8892C164.541 34.9533 164.847 34.1794 165.459 33.5674C166.107 32.9195 166.899 32.5955 167.835 32.5955C168.339 32.5955 168.861 32.7035 169.401 32.9195C169.941 33.0994 170.337 33.3874 170.589 33.7834L191.161 60.0254L190.243 60.6733V35.6193C190.243 34.7553 190.513 34.0354 191.053 33.4594C191.593 32.8835 192.313 32.5955 193.213 32.5955ZM218.124 41.0728L206.461 68.5027C206.209 69.1867 205.813 69.7266 205.273 70.1226C204.769 70.4826 204.211 70.6626 203.599 70.6626C202.627 70.6626 201.907 70.3926 201.439 69.8526C200.971 69.3127 200.737 68.6467 200.737 67.8548C200.737 67.5308 200.791 67.1888 200.899 66.8289L214.344 34.5393C214.632 33.8194 215.064 33.2614 215.64 32.8655C216.252 32.4695 216.9 32.3075 217.584 32.3795C218.232 32.3795 218.826 32.5775 219.366 32.9735C219.942 33.3334 220.356 33.8554 220.608 34.5393L233.891 66.1809C234.071 66.6489 234.161 67.0808 234.161 67.4768C234.161 68.4487 233.837 69.2227 233.189 69.7986C232.577 70.3746 231.893 70.6626 231.137 70.6626C230.489 70.6626 229.895 70.4646 229.355 70.0686C228.851 69.6726 228.455 69.1327 228.167 68.4487L216.558 41.3968L218.124 41.0728ZM208.135 61.9152L211.104 55.7057H225.683L226.709 61.9152H208.135ZM254.931 32.5955C257.523 32.5955 259.827 33.0814 261.843 34.0534C263.859 35.0253 265.551 36.3932 266.918 38.1571C268.322 39.8849 269.366 41.9008 270.05 44.2046C270.77 46.4724 271.13 48.9022 271.13 51.494C271.13 54.9858 270.5 58.1715 269.24 61.0513C267.98 63.8951 266.144 66.1629 263.733 67.8548C261.357 69.5466 258.423 70.3926 254.931 70.3926H242.026C241.09 70.3926 240.298 70.0866 239.65 69.4746C239.039 68.8267 238.733 68.0348 238.733 67.0988V35.8892C238.733 34.9533 239.039 34.1794 239.65 33.5674C240.298 32.9195 241.09 32.5955 242.026 32.5955H254.931ZM254.391 64.1831C256.659 64.1831 258.513 63.6071 259.953 62.4552C261.393 61.2673 262.437 59.7194 263.085 57.8115C263.769 55.8677 264.111 53.7619 264.111 51.494C264.111 49.8022 263.913 48.2003 263.517 46.6884C263.157 45.1405 262.581 43.7906 261.789 42.6387C260.997 41.4508 259.989 40.5149 258.765 39.8309C257.541 39.147 256.083 38.805 254.391 38.805H244.942L245.482 38.319V64.777L245.158 64.1831H254.391ZM290.944 41.0728L279.281 68.5027C279.029 69.1867 278.633 69.7266 278.093 70.1226C277.589 70.4826 277.032 70.6626 276.42 70.6626C275.448 70.6626 274.728 70.3926 274.26 69.8526C273.792 69.3127 273.558 68.6467 273.558 67.8548C273.558 67.5308 273.612 67.1888 273.72 66.8289L287.165 34.5393C287.453 33.8194 287.885 33.2614 288.461 32.8655C289.073 32.4695 289.721 32.3075 290.404 32.3795C291.052 32.3795 291.646 32.5775 292.186 32.9735C292.762 33.3334 293.176 33.8554 293.428 34.5393L306.711 66.1809C306.891 66.6489 306.981 67.0808 306.981 67.4768C306.981 68.4487 306.657 69.2227 306.009 69.7986C305.397 70.3746 304.713 70.6626 303.957 70.6626C303.309 70.6626 302.716 70.4646 302.176 70.0686C301.672 69.6726 301.276 69.1327 300.988 68.4487L289.379 41.3968L290.944 41.0728ZM280.955 61.9152L283.925 55.7057H298.504L299.53 61.9152H280.955Z" fill="#14293C"/>
</svg>
